<svg version="1.1" viewBox="270.0 300.0 700.0 280.0" fill="none" stroke="none" stroke-linecap="square" stroke-miterlimit="10" xmlns:xlink="http://www.w3.org/1999/xlink" xmlns="http://www.w3.org/2000/svg"><clipPath id="p.0"><path d="m0 0l960.0 0l0 720.0l-960.0 0l0 -720.0z" clip-rule="nonzero"/></clipPath><g clip-path="url(#p.0)"><path fill="#000000" fill-opacity="0.0" d="m0 0l960.0 0l0 720.0l-960.0 0z" fill-rule="evenodd"/><path fill="#000000" fill-opacity="0.0" d="m291.74802 546.92914l-5.8267517 -289.16534" fill-rule="evenodd"/><path stroke="#999999" stroke-width="1.0" stroke-linejoin="round" stroke-linecap="butt" d="m291.74802 546.92914l-5.7058716 -283.16656" fill-rule="evenodd"/><path fill="#999999" stroke="#999999" stroke-width="1.0" stroke-linecap="butt" d="m287.69354 263.72928l-1.7428284 -4.5039062l-1.559967 4.570465z" fill-rule="evenodd"/><path fill="#000000" fill-opacity="0.0" d="m291.74802 546.92914l304.53543 -2.4882202" fill-rule="evenodd"/><path stroke="#999999" stroke-width="1.0" stroke-linejoin="round" stroke-linecap="butt" d="m291.74802 546.92914l298.53568 -2.439209" fill-rule="evenodd"/><path fill="#999999" stroke="#999999" stroke-width="1.0" stroke-linecap="butt" d="m590.2972 546.14166l4.524414 -1.6887817l-4.5514526 -1.614563z" fill-rule="evenodd"/><path fill="#000000" fill-opacity="0.0" d="m319.25986 545.9265l-2.9606323 -282.96063" fill-rule="evenodd"/><path stroke="#999999" stroke-width="1.0" stroke-linejoin="round" stroke-linecap="butt" d="m319.25986 545.9265l-2.9606323 -282.96063" fill-rule="evenodd"/><path fill="#000000" fill-opacity="0.0" d="m348.8294 546.48553l-2.7401733 -283.5905" fill-rule="evenodd"/><path stroke="#999999" stroke-width="1.0" stroke-linejoin="round" stroke-linecap="butt" d="m348.8294 546.48553l-2.7401733 -283.5905" fill-rule="evenodd"/><path fill="#000000" fill-opacity="0.0" d="m377.7349 545.7034l-2.9291077 -282.74017" fill-rule="evenodd"/><path stroke="#999999" stroke-width="1.0" stroke-linejoin="round" stroke-linecap="butt" d="m377.7349 545.7034l-2.9291077 -282.74017" fill-rule="evenodd"/><path fill="#000000" fill-opacity="0.0" d="m406.6404 545.7034l-2.7401428 -282.80316" fill-rule="evenodd"/><path stroke="#999999" stroke-width="1.0" stroke-linejoin="round" stroke-linecap="butt" d="m406.6404 545.7034l-2.7401428 -282.80316" fill-rule="evenodd"/><path fill="#000000" fill-opacity="0.0" d="m435.15747 546.874l-2.4252014 -283.9685" fill-rule="evenodd"/><path stroke="#999999" stroke-width="1.0" stroke-linejoin="round" stroke-linecap="butt" d="m435.15747 546.874l-2.4252014 -283.9685" fill-rule="evenodd"/><path fill="#000000" fill-opacity="0.0" d="m462.5013 545.7034l-1.2598572 -282.80316" fill-rule="evenodd"/><path stroke="#999999" stroke-width="1.0" stroke-linejoin="round" stroke-linecap="butt" d="m462.5013 545.7034l-1.2598572 -282.80316" fill-rule="evenodd"/><path fill="#000000" fill-opacity="0.0" d="m492.9685 545.3123l0.3779602 -282.42517" fill-rule="evenodd"/><path stroke="#999999" stroke-width="1.0" stroke-linejoin="round" stroke-linecap="butt" d="m492.9685 545.3123l0.3779602 -282.42517" fill-rule="evenodd"/><path fill="#000000" fill-opacity="0.0" d="m523.04724 544.92126l0 -278.51968" fill-rule="evenodd"/><path stroke="#999999" stroke-width="1.0" stroke-linejoin="round" stroke-linecap="butt" d="m523.04724 544.92126l0 -278.51968" fill-rule="evenodd"/><path fill="#000000" fill-opacity="0.0" d="m559.3753 545.3123l-3.9055176 -278.51965" fill-rule="evenodd"/><path stroke="#999999" stroke-width="1.0" stroke-linejoin="round" stroke-linecap="butt" d="m559.3753 545.3123l-3.9055176 -278.51965" fill-rule="evenodd"/><path fill="#000000" fill-opacity="0.0" d="m291.85303 519.2598l289.63776 -3.7164917" fill-rule="evenodd"/><path stroke="#999999" stroke-width="1.0" stroke-linejoin="round" stroke-linecap="butt" d="m291.85303 519.2598l289.63776 -3.7164917" fill-rule="evenodd"/><path fill="#000000" fill-opacity="0.0" d="m291.85303 490.3622l289.63776 -3.7165527" fill-rule="evenodd"/><path stroke="#999999" stroke-width="1.0" stroke-linejoin="round" stroke-linecap="butt" d="m291.85303 490.3622l289.63776 -3.7165527" fill-rule="evenodd"/><path fill="#000000" fill-opacity="0.0" d="m290.29135 461.46457l289.6378 -3.7165527" fill-rule="evenodd"/><path stroke="#999999" stroke-width="1.0" stroke-linejoin="round" stroke-linecap="butt" d="m290.29135 461.46457l289.6378 -3.7165527" fill-rule="evenodd"/><path fill="#000000" fill-opacity="0.0" d="m289.12598 432.56693l289.63782 -3.7165222" fill-rule="evenodd"/><path stroke="#999999" stroke-width="1.0" stroke-linejoin="round" stroke-linecap="butt" d="m289.12598 432.56693l289.63782 -3.7165222" fill-rule="evenodd"/><path fill="#000000" fill-opacity="0.0" d="m290.29135 403.66928l289.6378 -3.7165222" fill-rule="evenodd"/><path stroke="#999999" stroke-width="1.0" stroke-linejoin="round" stroke-linecap="butt" d="m290.29135 403.66928l289.6378 -3.7165222" fill-rule="evenodd"/><path fill="#000000" fill-opacity="0.0" d="m289.12598 374.77167l289.63782 -3.7165527" fill-rule="evenodd"/><path stroke="#999999" stroke-width="1.0" stroke-linejoin="round" stroke-linecap="butt" d="m289.12598 374.77167l289.63782 -3.7165527" fill-rule="evenodd"/><path fill="#000000" fill-opacity="0.0" d="m286.4567 345.87402l289.6378 -3.7165527" fill-rule="evenodd"/><path stroke="#999999" stroke-width="1.0" stroke-linejoin="round" stroke-linecap="butt" d="m286.4567 345.87402l289.6378 -3.7165527" fill-rule="evenodd"/><path fill="#000000" fill-opacity="0.0" d="m285.92126 316.97638l289.63782 -3.7165222" fill-rule="evenodd"/><path stroke="#999999" stroke-width="1.0" stroke-linejoin="round" stroke-linecap="butt" d="m285.92126 316.97638l289.63782 -3.7165222" fill-rule="evenodd"/><path fill="#000000" fill-opacity="0.0" d="m302.10498 542.19946l269.13385 0l0 27.149597l-269.13385 0z" fill-rule="evenodd"/><path fill="#999999" d="m311.88623 562.5257q0 -2.359375 0.484375 -3.796875q0.484375 -1.453125 1.4375 -2.234375q0.96875 -0.78125 2.421875 -0.78125q1.078125 0 1.890625 0.4375q0.8125 0.421875 1.328125 1.25q0.53125 0.8125 0.828125 1.984375q0.3125 1.15625 0.3125 3.140625q0 2.359375 -0.484375 3.8125q-0.484375 1.4375 -1.453125 2.234375q-0.953125 0.78125 -2.421875 0.78125q-1.921875 0 -3.03125 -1.390625q-1.3125 -1.671875 -1.3125 -5.4375zm1.671875 0q0 3.296875 0.765625 4.390625q0.78125 1.078125 1.90625 1.078125q1.140625 0 1.90625 -1.09375q0.765625 -1.09375 0.765625 -4.375q0 -3.296875 -0.765625 -4.375q-0.765625 -1.078125 -1.921875 -1.078125q-1.125 0 -1.796875 0.953125q-0.859375 1.21875 -0.859375 4.5zm35.608948 6.59375l-1.640625 0l0 -10.453125q-0.59375 0.5625 -1.5625 1.140625q-0.953125 0.5625 -1.71875 0.84375l0 -1.59375q1.375 -0.640625 2.40625 -1.5625q1.03125 -0.921875 1.453125 -1.78125l1.0625 0l0 13.40625zm33.546417 -1.578125l0 1.578125l-8.828125 0q-0.015625 -0.59375 0.1875 -1.140625q0.34375 -0.90625 1.078125 -1.78125q0.75 -0.875 2.15625 -2.015625q2.171875 -1.78125 2.9375 -2.828125q0.765625 -1.046875 0.765625 -1.96875q0 -0.984375 -0.703125 -1.640625q-0.6875 -0.671875 -1.8125 -0.671875q-1.1875 0 -1.90625 0.71875q-0.703125 0.703125 -0.703125 1.953125l-1.6875 -0.171875q0.171875 -1.890625 1.296875 -2.875q1.140625 -0.984375 3.03125 -0.984375q1.921875 0 3.046875 1.0625q1.125 1.0625 1.125 2.640625q0 0.796875 -0.328125 1.578125q-0.328125 0.78125 -1.09375 1.640625q-0.75 0.84375 -2.53125 2.34375q-1.46875 1.234375 -1.890625 1.6875q-0.421875 0.4375 -0.6875 0.875l6.546875 0zm22.499573 -1.953125l1.640625 -0.21875q0.28125 1.40625 0.953125 2.015625q0.6875 0.609375 1.65625 0.609375q1.15625 0 1.953125 -0.796875q0.796875 -0.796875 0.796875 -1.984375q0 -1.125 -0.734375 -1.859375q-0.734375 -0.734375 -1.875 -0.734375q-0.46875 0 -1.15625 0.171875l0.1875 -1.4375q0.15625 0.015625 0.265625 0.015625q1.046875 0 1.875 -0.546875q0.84375 -0.546875 0.84375 -1.671875q0 -0.90625 -0.609375 -1.5q-0.609375 -0.59375 -1.578125 -0.59375q-0.953125 0 -1.59375 0.609375q-0.640625 0.59375 -0.8125 1.796875l-1.640625 -0.296875q0.296875 -1.640625 1.359375 -2.546875q1.0625 -0.90625 2.65625 -0.90625q1.09375 0 2.0 0.46875q0.921875 0.46875 1.40625 1.28125q0.5 0.8125 0.5 1.71875q0 0.859375 -0.46875 1.578125q-0.46875 0.703125 -1.375 1.125q1.1875 0.28125 1.84375 1.140625q0.65625 0.859375 0.65625 2.15625q0 1.734375 -1.28125 2.953125q-1.265625 1.21875 -3.21875 1.21875q-1.765625 0 -2.921875 -1.046875q-1.15625 -1.046875 -1.328125 -2.71875zm31.175629 3.53125l0 -3.203125l-5.796875 0l0 -1.5l6.09375 -8.65625l1.34375 0l0 8.65625l1.796875 0l0 1.5l-1.796875 0l0 3.203125l-1.640625 0zm0 -4.703125l0 -6.015625l-4.1875 6.015625l4.1875 0zm20.675629 1.203125l1.71875 -0.140625q0.1875 1.25 0.875 1.890625q0.703125 0.625 1.6875 0.625q1.1875 0 2.0 -0.890625q0.828125 -0.890625 0.828125 -2.359375q0 -1.40625 -0.796875 -2.21875q-0.78125 -0.8125 -2.0625 -0.8125q-0.78125 0 -1.421875 0.359375q-0.640625 0.359375 -1.0 0.9375l-1.546875 -0.203125l1.296875 -6.859375l6.640625 0l0 1.5625l-5.328125 0l-0.71875 3.59375q1.203125 -0.84375 2.515625 -0.84375q1.75 0 2.953125 1.21875q1.203125 1.203125 1.203125 3.109375q0 1.8125 -1.046875 3.140625q-1.296875 1.625 -3.515625 1.625q-1.8125 0 -2.96875 -1.015625q-1.15625 -1.03125 -1.3125 -2.71875zm39.608917 -6.578125l-1.625 0.125q-0.21875 -0.96875 -0.625 -1.40625q-0.65625 -0.703125 -1.640625 -0.703125q-0.78125 0 -1.375 0.4375q-0.765625 0.5625 -1.21875 1.65625q-0.453125 1.078125 -0.46875 3.078125q0.59375 -0.890625 1.453125 -1.328125q0.859375 -0.4375 1.796875 -0.4375q1.640625 0 2.78125 1.203125q1.15625 1.203125 1.15625 3.109375q0 1.265625 -0.546875 2.34375q-0.53125 1.078125 -1.484375 1.65625q-0.9375 0.578125 -2.140625 0.578125q-2.0625 0 -3.359375 -1.5q-1.28125 -1.515625 -1.28125 -4.984375q0 -3.875 1.421875 -5.625q1.25 -1.53125 3.375 -1.53125q1.5625 0 2.5625 0.890625q1.015625 0.875 1.21875 2.4375zm-6.6875 5.75q0 0.84375 0.359375 1.625q0.359375 0.765625 1.0 1.171875q0.640625 0.40625 1.359375 0.40625q1.03125 0 1.78125 -0.828125q0.75 -0.84375 0.75 -2.28125q0 -1.390625 -0.734375 -2.1875q-0.734375 -0.796875 -1.859375 -0.796875q-1.109375 0 -1.890625 0.796875q-0.765625 0.796875 -0.765625 2.09375zm29.405823 -7.28125l0 -1.578125l8.640625 0l0 1.28125q-1.28125 1.359375 -2.53125 3.609375q-1.25 2.25 -1.9375 4.625q-0.484375 1.671875 -0.625 3.671875l-1.6875 0q0.03125 -1.578125 0.625 -3.8125q0.59375 -2.234375 1.6875 -4.296875q1.109375 -2.078125 2.359375 -3.5l-6.53125 0zm33.515198 4.375q-1.015625 -0.375 -1.515625 -1.0625q-0.484375 -0.703125 -0.484375 -1.671875q0 -1.453125 1.046875 -2.4375q1.046875 -1.0 2.78125 -1.0q1.75 0 2.8125 1.015625q1.078125 1.015625 1.078125 2.46875q0 0.9375 -0.5 1.625q-0.484375 0.6875 -1.46875 1.0625q1.21875 0.390625 1.859375 1.28125q0.65625 0.890625 0.65625 2.140625q0 1.703125 -1.21875 2.875q-1.21875 1.171875 -3.1875 1.171875q-1.984375 0 -3.203125 -1.171875q-1.203125 -1.171875 -1.203125 -2.921875q0 -1.3125 0.65625 -2.1875q0.671875 -0.875 1.890625 -1.1875zm-0.328125 -2.78125q0 0.9375 0.609375 1.546875q0.609375 0.59375 1.59375 0.59375q0.9375 0 1.546875 -0.59375q0.609375 -0.59375 0.609375 -1.453125q0 -0.90625 -0.625 -1.515625q-0.625 -0.625 -1.5625 -0.625q-0.9375 0 -1.5625 0.609375q-0.609375 0.59375 -0.609375 1.4375zm-0.53125 6.15625q0 0.703125 0.328125 1.359375q0.34375 0.65625 1.0 1.015625q0.65625 0.359375 1.40625 0.359375q1.171875 0 1.9375 -0.75q0.765625 -0.75 0.765625 -1.921875q0 -1.1875 -0.796875 -1.953125q-0.78125 -0.78125 -1.953125 -0.78125q-1.15625 0 -1.921875 0.765625q-0.765625 0.765625 -0.765625 1.90625z" fill-rule="nonzero"/><path fill="#000000" fill-opacity="0.0" d="m259.76642 292.69028l17.574799 0l0 27.149628l-17.574799 0z" fill-rule="evenodd"/><path fill="#999999" d="m269.23184 308.00092l0 -1.578125l8.640625 0l0 1.28125q-1.28125 1.359375 -2.53125 3.609375q-1.25 2.25 -1.9375 4.625q-0.484375 1.671875 -0.625 3.671875l-1.6875 0q0.03125 -1.578125 0.625 -3.8125q0.59375 -2.234375 1.6875 -4.296875q1.109375 -2.078125 2.359375 -3.5l-6.53125 0z" fill-rule="nonzero"/><path fill="#000000" fill-opacity="0.0" d="m259.76642 319.8399l17.574799 0l0 27.149597l-17.574799 0z" fill-rule="evenodd"/><path fill="#999999" d="m277.62247 336.68176l-1.625 0.125q-0.21875 -0.96875 -0.625 -1.40625q-0.65625 -0.703125 -1.640625 -0.703125q-0.78125 0 -1.375 0.4375q-0.765625 0.5625 -1.21875 1.65625q-0.453125 1.078125 -0.46875 3.078125q0.59375 -0.890625 1.453125 -1.328125q0.859375 -0.4375 1.796875 -0.4375q1.640625 0 2.78125 1.203125q1.15625 1.203125 1.15625 3.109375q0 1.265625 -0.546875 2.34375q-0.53125 1.078125 -1.484375 1.65625q-0.9375 0.578125 -2.140625 0.578125q-2.0625 0 -3.359375 -1.5q-1.28125 -1.515625 -1.28125 -4.984375q0 -3.875 1.421875 -5.625q1.25 -1.53125 3.375 -1.53125q1.5625 0 2.5625 0.890625q1.015625 0.875 1.21875 2.4375zm-6.6875 5.75q0 0.84375 0.359375 1.625q0.359375 0.765625 1.0 1.171875q0.640625 0.40625 1.359375 0.40625q1.03125 0 1.78125 -0.828125q0.75 -0.84375 0.75 -2.28125q0 -1.390625 -0.734375 -2.1875q-0.734375 -0.796875 -1.859375 -0.796875q-1.109375 0 -1.890625 0.796875q-0.765625 0.796875 -0.765625 2.09375z" fill-rule="nonzero"/><path fill="#000000" fill-opacity="0.0" d="m259.76642 349.3701l17.574799 0l0 27.149597l-17.574799 0z" fill-rule="evenodd"/><path fill="#999999" d="m269.12247 372.79007l1.71875 -0.140625q0.1875 1.25 0.875 1.890625q0.703125 0.625 1.6875 0.625q1.1875 0 2.0 -0.890625q0.828125 -0.890625 0.828125 -2.359375q0 -1.40625 -0.796875 -2.21875q-0.78125 -0.8125 -2.0625 -0.8125q-0.78125 0 -1.421875 0.359375q-0.640625 0.359375 -1.0 0.9375l-1.546875 -0.203125l1.296875 -6.859375l6.640625 0l0 1.5625l-5.328125 0l-0.71875 3.59375q1.203125 -0.84375 2.515625 -0.84375q1.75 0 2.953125 1.21875q1.203125 1.203125 1.203125 3.109375q0 1.8125 -1.046875 3.140625q-1.296875 1.625 -3.515625 1.625q-1.8125 0 -2.96875 -1.015625q-1.15625 -1.03125 -1.3125 -2.71875z" fill-rule="nonzero"/><path fill="#000000" fill-opacity="0.0" d="m259.76642 376.51968l17.574799 0l0 27.149597l-17.574799 0z" fill-rule="evenodd"/><path fill="#999999" d="m274.37247 403.4397l0 -3.203125l-5.796875 0l0 -1.5l6.09375 -8.65625l1.34375 0l0 8.65625l1.796875 0l0 1.5l-1.796875 0l0 3.203125l-1.640625 0zm0 -4.703125l0 -6.015625l-4.1875 6.015625l4.1875 0z" fill-rule="nonzero"/><path fill="#000000" fill-opacity="0.0" d="m259.76642 413.38058l17.574799 0l0 27.149597l-17.574799 0z" fill-rule="evenodd"/><path fill="#999999" d="m269.12247 436.76932l1.640625 -0.21875q0.28125 1.40625 0.953125 2.015625q0.6875 0.609375 1.65625 0.609375q1.15625 0 1.953125 -0.796875q0.796875 -0.796875 0.796875 -1.984375q0 -1.125 -0.734375 -1.859375q-0.734375 -0.734375 -1.875 -0.734375q-0.46875 0 -1.15625 0.171875l0.1875 -1.4375q0.15625 0.015625 0.265625 0.015625q1.046875 0 1.875 -0.546875q0.84375 -0.546875 0.84375 -1.671875q0 -0.90625 -0.609375 -1.5q-0.609375 -0.59375 -1.578125 -0.59375q-0.953125 0 -1.59375 0.609375q-0.640625 0.59375 -0.8125 1.796875l-1.640625 -0.296875q0.296875 -1.640625 1.359375 -2.546875q1.0625 -0.90625 2.65625 -0.90625q1.09375 0 2.0 0.46875q0.921875 0.46875 1.40625 1.28125q0.5 0.8125 0.5 1.71875q0 0.859375 -0.46875 1.578125q-0.46875 0.703125 -1.375 1.125q1.1875 0.28125 1.84375 1.140625q0.65625 0.859375 0.65625 2.15625q0 1.734375 -1.28125 2.953125q-1.265625 1.21875 -3.21875 1.21875q-1.765625 0 -2.921875 -1.046875q-1.15625 -1.046875 -1.328125 -2.71875z" fill-rule="nonzero"/><path fill="#000000" fill-opacity="0.0" d="m259.76642 440.53018l17.574799 0l0 27.149597l-17.574799 0z" fill-rule="evenodd"/><path fill="#999999" d="m277.73184 465.87207l0 1.578125l-8.828125 0q-0.015625 -0.59375 0.1875 -1.140625q0.34375 -0.90625 1.078125 -1.78125q0.75 -0.875 2.15625 -2.015625q2.171875 -1.78125 2.9375 -2.828125q0.765625 -1.046875 0.765625 -1.96875q0 -0.984375 -0.703125 -1.640625q-0.6875 -0.671875 -1.8125 -0.671875q-1.1875 0 -1.90625 0.71875q-0.703125 0.703125 -0.703125 1.953125l-1.6875 -0.171875q0.171875 -1.890625 1.296875 -2.875q1.140625 -0.984375 3.03125 -0.984375q1.921875 0 3.046875 1.0625q1.125 1.0625 1.125 2.640625q0 0.796875 -0.328125 1.578125q-0.328125 0.78125 -1.09375 1.640625q-0.75 0.84375 -2.53125 2.34375q-1.46875 1.234375 -1.890625 1.6875q-0.421875 0.4375 -0.6875 0.875l6.546875 0z" fill-rule="nonzero"/><path fill="#000000" fill-opacity="0.0" d="m259.76642 470.06036l17.574799 0l0 27.149597l-17.574799 0z" fill-rule="evenodd"/><path fill="#999999" d="m275.29434 496.98038l-1.640625 0l0 -10.453125q-0.59375 0.5625 -1.5625 1.140625q-0.953125 0.5625 -1.71875 0.84375l0 -1.59375q1.375 -0.640625 2.40625 -1.5625q1.03125 -0.921875 1.453125 -1.78125l1.0625 0l0 13.40625z" fill-rule="nonzero"/><path fill="#000000" fill-opacity="0.0" d="m259.76642 497.20996l17.574799 0l0 27.149597l-17.574799 0z" fill-rule="evenodd"/><path fill="#999999" d="m269.12247 517.5362q0 -2.359375 0.484375 -3.796875q0.484375 -1.453125 1.4375 -2.2343445q0.96875 -0.78125 2.421875 -0.78125q1.078125 0 1.890625 0.4375q0.8125 0.421875 1.328125 1.2499695q0.53125 0.8125 0.828125 1.984375q0.3125 1.15625 0.3125 3.140625q0 2.359375 -0.484375 3.8125q-0.484375 1.4375 -1.453125 2.234375q-0.953125 0.78125 -2.421875 0.78125q-1.921875 0 -3.03125 -1.390625q-1.3125 -1.671875 -1.3125 -5.4375zm1.671875 0q0 3.296875 0.765625 4.390625q0.78125 1.078125 1.90625 1.078125q1.140625 0 1.90625 -1.09375q0.765625 -1.09375 0.765625 -4.375q0 -3.296875 -0.765625 -4.375q-0.765625 -1.078125 -1.921875 -1.078125q-1.125 0 -1.796875 0.953125q-0.859375 1.21875 -0.859375 4.5z" fill-rule="nonzero"/><path fill="#cfe2f3" d="m310.41733 517.6877l0 0c0 -4.8792725 3.9342346 -8.834656 8.787384 -8.834656l0 0c2.3305664 0 4.565674 0.93078613 6.2136536 2.5875854c1.6479492 1.6568604 2.573761 3.9039307 2.573761 6.2470703l0 0c0 4.8792114 -3.9342651 8.834656 -8.787415 8.834656l0 0c-4.8531494 0 -8.787384 -3.9554443 -8.787384 -8.834656z" fill-rule="evenodd"/><path stroke="#999999" stroke-width="1.0" stroke-linejoin="round" stroke-linecap="butt" d="m310.41733 517.6877l0 0c0 -4.8792725 3.9342346 -8.834656 8.787384 -8.834656l0 0c2.3305664 0 4.565674 0.93078613 6.2136536 2.5875854c1.6479492 1.6568604 2.573761 3.9039307 2.573761 6.2470703l0 0c0 4.8792114 -3.9342651 8.834656 -8.787415 8.834656l0 0c-4.8531494 0 -8.787384 -3.9554443 -8.787384 -8.834656z" fill-rule="evenodd"/><path fill="#cfe2f3" d="m338.2454 517.40155l0 0c0 -4.8792114 3.9342651 -8.834625 8.787415 -8.834625l0 0c2.3305664 0 4.565674 0.93078613 6.213623 2.587616c1.6479797 1.6567993 2.5737915 3.9039307 2.5737915 6.2470093l0 0c0 4.8792725 -3.9342651 8.834656 -8.787415 8.834656l0 0c-4.8531494 0 -8.787415 -3.9553833 -8.787415 -8.834656z" fill-rule="evenodd"/><path stroke="#999999" stroke-width="1.0" stroke-linejoin="round" stroke-linecap="butt" d="m338.2454 517.40155l0 0c0 -4.8792114 3.9342651 -8.834625 8.787415 -8.834625l0 0c2.3305664 0 4.565674 0.93078613 6.213623 2.587616c1.6479797 1.6567993 2.5737915 3.9039307 2.5737915 6.2470093l0 0c0 4.8792725 -3.9342651 8.834656 -8.787415 8.834656l0 0c-4.8531494 0 -8.787415 -3.9553833 -8.787415 -8.834656z" fill-rule="evenodd"/><path fill="#cfe2f3" d="m367.57742 517.40155l0 0c0 -4.8792114 3.9342651 -8.834625 8.787415 -8.834625l0 0c2.3305664 0 4.565674 0.93078613 6.213623 2.587616c1.6479492 1.6567993 2.573761 3.9039307 2.573761 6.2470093l0 0c0 4.8792725 -3.9342346 8.834656 -8.787384 8.834656l0 0c-4.8531494 0 -8.787415 -3.9553833 -8.787415 -8.834656z" fill-rule="evenodd"/><path stroke="#999999" stroke-width="1.0" stroke-linejoin="round" stroke-linecap="butt" d="m367.57742 517.40155l0 0c0 -4.8792114 3.9342651 -8.834625 8.787415 -8.834625l0 0c2.3305664 0 4.565674 0.93078613 6.213623 2.587616c1.6479492 1.6567993 2.573761 3.9039307 2.573761 6.2470093l0 0c0 4.8792725 -3.9342346 8.834656 -8.787384 8.834656l0 0c-4.8531494 0 -8.787415 -3.9553833 -8.787415 -8.834656z" fill-rule="evenodd"/><path fill="#cfe2f3" d="m396.4462 517.40155l0 0c0 -4.8792114 3.9342651 -8.834625 8.787384 -8.834625l0 0c2.3305664 0 4.565674 0.93078613 6.2136536 2.587616c1.6479492 1.6567993 2.573761 3.9039307 2.573761 6.2470093l0 0c0 4.8792725 -3.9342651 8.834656 -8.787415 8.834656l0 0c-4.853119 0 -8.787384 -3.9553833 -8.787384 -8.834656z" fill-rule="evenodd"/><path stroke="#999999" stroke-width="1.0" stroke-linejoin="round" stroke-linecap="butt" d="m396.4462 517.40155l0 0c0 -4.8792114 3.9342651 -8.834625 8.787384 -8.834625l0 0c2.3305664 0 4.565674 0.93078613 6.2136536 2.587616c1.6479492 1.6567993 2.573761 3.9039307 2.573761 6.2470093l0 0c0 4.8792725 -3.9342651 8.834656 -8.787415 8.834656l0 0c-4.853119 0 -8.787384 -3.9553833 -8.787384 -8.834656z" fill-rule="evenodd"/><path fill="#cfe2f3" d="m425.31366 517.5446l0 0c0 -4.8792114 3.9342346 -8.834656 8.787384 -8.834656l0 0c2.3305664 0 4.565674 0.93081665 6.213623 2.587616c1.6479797 1.6568298 2.5737915 3.9039612 2.5737915 6.24704l0 0c0 4.8792725 -3.9342651 8.834656 -8.787415 8.834656l0 0c-4.8531494 0 -8.787384 -3.9553833 -8.787384 -8.834656z" fill-rule="evenodd"/><path stroke="#999999" stroke-width="1.0" stroke-linejoin="round" stroke-linecap="butt" d="m425.31366 517.5446l0 0c0 -4.8792114 3.9342346 -8.834656 8.787384 -8.834656l0 0c2.3305664 0 4.565674 0.93081665 6.213623 2.587616c1.6479797 1.6568298 2.5737915 3.9039612 2.5737915 6.24704l0 0c0 4.8792725 -3.9342651 8.834656 -8.787415 8.834656l0 0c-4.8531494 0 -8.787384 -3.9553833 -8.787384 -8.834656z" fill-rule="evenodd"/><path fill="#cfe2f3" d="m453.14172 517.25854l0 0c0 -4.8792725 3.9342651 -8.834656 8.787415 -8.834656l0 0c2.3305664 0 4.565674 0.93078613 6.213623 2.587616c1.6479492 1.6568298 2.573761 3.9039612 2.573761 6.24704l0 0c0 4.8792114 -3.9342346 8.834656 -8.787384 8.834656l0 0c-4.8531494 0 -8.787415 -3.9554443 -8.787415 -8.834656z" fill-rule="evenodd"/><path stroke="#999999" stroke-width="1.0" stroke-linejoin="round" stroke-linecap="butt" d="m453.14172 517.25854l0 0c0 -4.8792725 3.9342651 -8.834656 8.787415 -8.834656l0 0c2.3305664 0 4.565674 0.93078613 6.213623 2.587616c1.6479492 1.6568298 2.573761 3.9039612 2.573761 6.24704l0 0c0 4.8792114 -3.9342346 8.834656 -8.787384 8.834656l0 0c-4.8531494 0 -8.787415 -3.9554443 -8.787415 -8.834656z" fill-rule="evenodd"/><path fill="#cfe2f3" d="m484.62335 517.40027l0 0c0 -4.8792725 3.9342651 -8.834656 8.787415 -8.834656l0 0c2.3305664 0 4.565674 0.93078613 6.213623 2.587616c1.6479492 1.6568298 2.573761 3.9039612 2.573761 6.24704l0 0c0 4.8792114 -3.9342346 8.834656 -8.787384 8.834656l0 0c-4.8531494 0 -8.787415 -3.9554443 -8.787415 -8.834656z" fill-rule="evenodd"/><path stroke="#999999" stroke-width="1.0" stroke-linejoin="round" stroke-linecap="butt" d="m484.62335 517.40027l0 0c0 -4.8792725 3.9342651 -8.834656 8.787415 -8.834656l0 0c2.3305664 0 4.565674 0.93078613 6.213623 2.587616c1.6479492 1.6568298 2.573761 3.9039612 2.573761 6.24704l0 0c0 4.8792114 -3.9342346 8.834656 -8.787384 8.834656l0 0c-4.8531494 0 -8.787415 -3.9554443 -8.787415 -8.834656z" fill-rule="evenodd"/><path fill="#cfe2f3" d="m514.8412 517.40027l0 0c0 -4.8792725 3.9342651 -8.834656 8.787415 -8.834656l0 0c2.3305664 0 4.565674 0.93078613 6.213623 2.587616c1.6479492 1.6568298 2.5737915 3.9039612 2.5737915 6.24704l0 0c0 4.8792114 -3.9342651 8.834656 -8.787415 8.834656l0 0c-4.8531494 0 -8.787415 -3.9554443 -8.787415 -8.834656z" fill-rule="evenodd"/><path stroke="#999999" stroke-width="1.0" stroke-linejoin="round" stroke-linecap="butt" d="m514.8412 517.40027l0 0c0 -4.8792725 3.9342651 -8.834656 8.787415 -8.834656l0 0c2.3305664 0 4.565674 0.93078613 6.213623 2.587616c1.6479492 1.6568298 2.5737915 3.9039612 2.5737915 6.24704l0 0c0 4.8792114 -3.9342651 8.834656 -8.787415 8.834656l0 0c-4.8531494 0 -8.787415 -3.9554443 -8.787415 -8.834656z" fill-rule="evenodd"/><path fill="#cfe2f3" d="m550.40027 517.40027l0 0c0 -4.8792725 3.9342651 -8.834656 8.787415 -8.834656l0 0c2.3305664 0 4.565674 0.93078613 6.213623 2.587616c1.6479492 1.6568298 2.5737305 3.9039612 2.5737305 6.24704l0 0c0 4.8792114 -3.934204 8.834656 -8.7873535 8.834656l0 0c-4.8531494 0 -8.787415 -3.9554443 -8.787415 -8.834656z" fill-rule="evenodd"/><path stroke="#999999" stroke-width="1.0" stroke-linejoin="round" stroke-linecap="butt" d="m550.40027 517.40027l0 0c0 -4.8792725 3.9342651 -8.834656 8.787415 -8.834656l0 0c2.3305664 0 4.565674 0.93078613 6.213623 2.587616c1.6479492 1.6568298 2.5737305 3.9039612 2.5737305 6.24704l0 0c0 4.8792114 -3.934204 8.834656 -8.7873535 8.834656l0 0c-4.8531494 0 -8.787415 -3.9554443 -8.787415 -8.834656z" fill-rule="evenodd"/><path fill="#cfe2f3" d="m310.41733 490.979l0 0c0 -4.879242 3.9342346 -8.834656 8.787384 -8.834656l0 0c2.3305664 0 4.565674 0.93078613 6.2136536 2.587616c1.6479492 1.6568298 2.573761 3.9039307 2.573761 6.24704l0 0c0 4.879242 -3.9342651 8.834656 -8.787415 8.834656l0 0c-4.8531494 0 -8.787384 -3.9554138 -8.787384 -8.834656z" fill-rule="evenodd"/><path stroke="#999999" stroke-width="1.0" stroke-linejoin="round" stroke-linecap="butt" d="m310.41733 490.979l0 0c0 -4.879242 3.9342346 -8.834656 8.787384 -8.834656l0 0c2.3305664 0 4.565674 0.93078613 6.2136536 2.587616c1.6479492 1.6568298 2.573761 3.9039307 2.573761 6.24704l0 0c0 4.879242 -3.9342651 8.834656 -8.787415 8.834656l0 0c-4.8531494 0 -8.787384 -3.9554138 -8.787384 -8.834656z" fill-rule="evenodd"/><path fill="#cfe2f3" d="m338.2454 490.6929l0 0c0 -4.879242 3.9342651 -8.834625 8.787415 -8.834625l0 0c2.3305664 0 4.565674 0.93078613 6.213623 2.5875854c1.6479797 1.6568298 2.5737915 3.9039612 2.5737915 6.24704l0 0c0 4.879242 -3.9342651 8.834656 -8.787415 8.834656l0 0c-4.8531494 0 -8.787415 -3.9554138 -8.787415 -8.834656z" fill-rule="evenodd"/><path stroke="#999999" stroke-width="1.0" stroke-linejoin="round" stroke-linecap="butt" d="m338.2454 490.6929l0 0c0 -4.879242 3.9342651 -8.834625 8.787415 -8.834625l0 0c2.3305664 0 4.565674 0.93078613 6.213623 2.5875854c1.6479797 1.6568298 2.5737915 3.9039612 2.5737915 6.24704l0 0c0 4.879242 -3.9342651 8.834656 -8.787415 8.834656l0 0c-4.8531494 0 -8.787415 -3.9554138 -8.787415 -8.834656z" fill-rule="evenodd"/><path fill="#cfe2f3" d="m367.57742 490.6929l0 0c0 -4.879242 3.9342651 -8.834625 8.787415 -8.834625l0 0c2.3305664 0 4.565674 0.93078613 6.213623 2.5875854c1.6479492 1.6568298 2.573761 3.9039612 2.573761 6.24704l0 0c0 4.879242 -3.9342346 8.834656 -8.787384 8.834656l0 0c-4.8531494 0 -8.787415 -3.9554138 -8.787415 -8.834656z" fill-rule="evenodd"/><path stroke="#999999" stroke-width="1.0" stroke-linejoin="round" stroke-linecap="butt" d="m367.57742 490.6929l0 0c0 -4.879242 3.9342651 -8.834625 8.787415 -8.834625l0 0c2.3305664 0 4.565674 0.93078613 6.213623 2.5875854c1.6479492 1.6568298 2.573761 3.9039612 2.573761 6.24704l0 0c0 4.879242 -3.9342346 8.834656 -8.787384 8.834656l0 0c-4.8531494 0 -8.787415 -3.9554138 -8.787415 -8.834656z" fill-rule="evenodd"/><path fill="#cfe2f3" d="m396.4462 490.6929l0 0c0 -4.879242 3.9342651 -8.834625 8.787384 -8.834625l0 0c2.3305664 0 4.565674 0.93078613 6.2136536 2.5875854c1.6479492 1.6568298 2.573761 3.9039612 2.573761 6.24704l0 0c0 4.879242 -3.9342651 8.834656 -8.787415 8.834656l0 0c-4.853119 0 -8.787384 -3.9554138 -8.787384 -8.834656z" fill-rule="evenodd"/><path stroke="#999999" stroke-width="1.0" stroke-linejoin="round" stroke-linecap="butt" d="m396.4462 490.6929l0 0c0 -4.879242 3.9342651 -8.834625 8.787384 -8.834625l0 0c2.3305664 0 4.565674 0.93078613 6.2136536 2.5875854c1.6479492 1.6568298 2.573761 3.9039612 2.573761 6.24704l0 0c0 4.879242 -3.9342651 8.834656 -8.787415 8.834656l0 0c-4.853119 0 -8.787384 -3.9554138 -8.787384 -8.834656z" fill-rule="evenodd"/><path fill="#cfe2f3" d="m425.31366 490.83597l0 0c0 -4.879242 3.9342346 -8.834656 8.787384 -8.834656l0 0c2.3305664 0 4.565674 0.93078613 6.213623 2.587616c1.6479797 1.6567993 2.5737915 3.9039307 2.5737915 6.24704l0 0c0 4.879242 -3.9342651 8.834625 -8.787415 8.834625l0 0c-4.8531494 0 -8.787384 -3.9553833 -8.787384 -8.834625z" fill-rule="evenodd"/><path stroke="#999999" stroke-width="1.0" stroke-linejoin="round" stroke-linecap="butt" d="m425.31366 490.83597l0 0c0 -4.879242 3.9342346 -8.834656 8.787384 -8.834656l0 0c2.3305664 0 4.565674 0.93078613 6.213623 2.587616c1.6479797 1.6567993 2.5737915 3.9039307 2.5737915 6.24704l0 0c0 4.879242 -3.9342651 8.834625 -8.787415 8.834625l0 0c-4.8531494 0 -8.787384 -3.9553833 -8.787384 -8.834625z" fill-rule="evenodd"/><path fill="#cfe2f3" d="m453.14172 490.54987l0 0c0 -4.879242 3.9342651 -8.834656 8.787415 -8.834656l0 0c2.3305664 0 4.565674 0.93081665 6.213623 2.587616c1.6479492 1.6568298 2.573761 3.9039612 2.573761 6.24704l0 0c0 4.879242 -3.9342346 8.834656 -8.787384 8.834656l0 0c-4.8531494 0 -8.787415 -3.9554138 -8.787415 -8.834656z" fill-rule="evenodd"/><path stroke="#999999" stroke-width="1.0" stroke-linejoin="round" stroke-linecap="butt" d="m453.14172 490.54987l0 0c0 -4.879242 3.9342651 -8.834656 8.787415 -8.834656l0 0c2.3305664 0 4.565674 0.93081665 6.213623 2.587616c1.6479492 1.6568298 2.573761 3.9039612 2.573761 6.24704l0 0c0 4.879242 -3.9342346 8.834656 -8.787384 8.834656l0 0c-4.8531494 0 -8.787415 -3.9554138 -8.787415 -8.834656z" fill-rule="evenodd"/><path fill="#cfe2f3" d="m484.62335 490.6916l0 0c0 -4.879242 3.9342651 -8.834625 8.787415 -8.834625l0 0c2.3305664 0 4.565674 0.93078613 6.213623 2.5875854c1.6479492 1.6568298 2.573761 3.9039612 2.573761 6.24704l0 0c0 4.879242 -3.9342346 8.834656 -8.787384 8.834656l0 0c-4.8531494 0 -8.787415 -3.9554138 -8.787415 -8.834656z" fill-rule="evenodd"/><path stroke="#999999" stroke-width="1.0" stroke-linejoin="round" stroke-linecap="butt" d="m484.62335 490.6916l0 0c0 -4.879242 3.9342651 -8.834625 8.787415 -8.834625l0 0c2.3305664 0 4.565674 0.93078613 6.213623 2.5875854c1.6479492 1.6568298 2.573761 3.9039612 2.573761 6.24704l0 0c0 4.879242 -3.9342346 8.834656 -8.787384 8.834656l0 0c-4.8531494 0 -8.787415 -3.9554138 -8.787415 -8.834656z" fill-rule="evenodd"/><path fill="#cfe2f3" d="m514.8412 490.6916l0 0c0 -4.879242 3.9342651 -8.834625 8.787415 -8.834625l0 0c2.3305664 0 4.565674 0.93078613 6.213623 2.5875854c1.6479492 1.6568298 2.5737915 3.9039612 2.5737915 6.24704l0 0c0 4.879242 -3.9342651 8.834656 -8.787415 8.834656l0 0c-4.8531494 0 -8.787415 -3.9554138 -8.787415 -8.834656z" fill-rule="evenodd"/><path stroke="#999999" stroke-width="1.0" stroke-linejoin="round" stroke-linecap="butt" d="m514.8412 490.6916l0 0c0 -4.879242 3.9342651 -8.834625 8.787415 -8.834625l0 0c2.3305664 0 4.565674 0.93078613 6.213623 2.5875854c1.6479492 1.6568298 2.5737915 3.9039612 2.5737915 6.24704l0 0c0 4.879242 -3.9342651 8.834656 -8.787415 8.834656l0 0c-4.8531494 0 -8.787415 -3.9554138 -8.787415 -8.834656z" fill-rule="evenodd"/><path fill="#cfe2f3" d="m550.40027 490.6916l0 0c0 -4.879242 3.9342651 -8.834625 8.787415 -8.834625l0 0c2.3305664 0 4.565674 0.93078613 6.213623 2.5875854c1.6479492 1.6568298 2.5737305 3.9039612 2.5737305 6.24704l0 0c0 4.879242 -3.934204 8.834656 -8.7873535 8.834656l0 0c-4.8531494 0 -8.787415 -3.9554138 -8.787415 -8.834656z" fill-rule="evenodd"/><path stroke="#999999" stroke-width="1.0" stroke-linejoin="round" stroke-linecap="butt" d="m550.40027 490.6916l0 0c0 -4.879242 3.9342651 -8.834625 8.787415 -8.834625l0 0c2.3305664 0 4.565674 0.93078613 6.213623 2.5875854c1.6479492 1.6568298 2.5737305 3.9039612 2.5737305 6.24704l0 0c0 4.879242 -3.934204 8.834656 -8.7873535 8.834656l0 0c-4.8531494 0 -8.787415 -3.9554138 -8.787415 -8.834656z" fill-rule="evenodd"/><path fill="#cfe2f3" d="m310.41733 457.56955l0 0c0 -4.879242 3.9342346 -8.834656 8.787384 -8.834656l0 0c2.3305664 0 4.565674 0.93081665 6.2136536 2.587616c1.6479492 1.6568298 2.573761 3.9039612 2.573761 6.24704l0 0c0 4.879242 -3.9342651 8.834656 -8.787415 8.834656l0 0c-4.8531494 0 -8.787384 -3.9554138 -8.787384 -8.834656z" fill-rule="evenodd"/><path stroke="#999999" stroke-width="1.0" stroke-linejoin="round" stroke-linecap="butt" d="m310.41733 457.56955l0 0c0 -4.879242 3.9342346 -8.834656 8.787384 -8.834656l0 0c2.3305664 0 4.565674 0.93081665 6.2136536 2.587616c1.6479492 1.6568298 2.573761 3.9039612 2.573761 6.24704l0 0c0 4.879242 -3.9342651 8.834656 -8.787415 8.834656l0 0c-4.8531494 0 -8.787384 -3.9554138 -8.787384 -8.834656z" fill-rule="evenodd"/><path fill="#cfe2f3" d="m338.2454 457.28348l0 0c0 -4.879242 3.9342651 -8.834656 8.787415 -8.834656l0 0c2.3305664 0 4.565674 0.93078613 6.213623 2.587616c1.6479797 1.6567993 2.5737915 3.9039307 2.5737915 6.24704l0 0c0 4.879242 -3.9342651 8.834625 -8.787415 8.834625l0 0c-4.8531494 0 -8.787415 -3.9553833 -8.787415 -8.834625z" fill-rule="evenodd"/><path stroke="#999999" stroke-width="1.0" stroke-linejoin="round" stroke-linecap="butt" d="m338.2454 457.28348l0 0c0 -4.879242 3.9342651 -8.834656 8.787415 -8.834656l0 0c2.3305664 0 4.565674 0.93078613 6.213623 2.587616c1.6479797 1.6567993 2.5737915 3.9039307 2.5737915 6.24704l0 0c0 4.879242 -3.9342651 8.834625 -8.787415 8.834625l0 0c-4.8531494 0 -8.787415 -3.9553833 -8.787415 -8.834625z" fill-rule="evenodd"/><path fill="#a64d79" d="m367.57742 457.28348l0 0c0 -4.879242 3.9342651 -8.834656 8.787415 -8.834656l0 0c2.3305664 0 4.565674 0.93078613 6.213623 2.587616c1.6479492 1.6567993 2.573761 3.9039307 2.573761 6.24704l0 0c0 4.879242 -3.9342346 8.834625 -8.787384 8.834625l0 0c-4.8531494 0 -8.787415 -3.9553833 -8.787415 -8.834625z" fill-rule="evenodd"/><path stroke="#a64d79" stroke-width="1.0" stroke-linejoin="round" stroke-linecap="butt" d="m367.57742 457.28348l0 0c0 -4.879242 3.9342651 -8.834656 8.787415 -8.834656l0 0c2.3305664 0 4.565674 0.93078613 6.213623 2.587616c1.6479492 1.6567993 2.573761 3.9039307 2.573761 6.24704l0 0c0 4.879242 -3.9342346 8.834625 -8.787384 8.834625l0 0c-4.8531494 0 -8.787415 -3.9553833 -8.787415 -8.834625z" fill-rule="evenodd"/><path fill="#cfe2f3" d="m396.4462 457.28348l0 0c0 -4.879242 3.9342651 -8.834656 8.787384 -8.834656l0 0c2.3305664 0 4.565674 0.93078613 6.2136536 2.587616c1.6479492 1.6567993 2.573761 3.9039307 2.573761 6.24704l0 0c0 4.879242 -3.9342651 8.834625 -8.787415 8.834625l0 0c-4.853119 0 -8.787384 -3.9553833 -8.787384 -8.834625z" fill-rule="evenodd"/><path stroke="#999999" stroke-width="1.0" stroke-linejoin="round" stroke-linecap="butt" d="m396.4462 457.28348l0 0c0 -4.879242 3.9342651 -8.834656 8.787384 -8.834656l0 0c2.3305664 0 4.565674 0.93078613 6.2136536 2.587616c1.6479492 1.6567993 2.573761 3.9039307 2.573761 6.24704l0 0c0 4.879242 -3.9342651 8.834625 -8.787415 8.834625l0 0c-4.853119 0 -8.787384 -3.9553833 -8.787384 -8.834625z" fill-rule="evenodd"/><path fill="#cfe2f3" d="m425.31366 457.4265l0 0c0 -4.879242 3.9342346 -8.834656 8.787384 -8.834656l0 0c2.3305664 0 4.565674 0.93078613 6.213623 2.587616c1.6479797 1.6568298 2.5737915 3.9039307 2.5737915 6.24704l0 0c0 4.879242 -3.9342651 8.834656 -8.787415 8.834656l0 0c-4.8531494 0 -8.787384 -3.9554138 -8.787384 -8.834656z" fill-rule="evenodd"/><path stroke="#999999" stroke-width="1.0" stroke-linejoin="round" stroke-linecap="butt" d="m425.31366 457.4265l0 0c0 -4.879242 3.9342346 -8.834656 8.787384 -8.834656l0 0c2.3305664 0 4.565674 0.93078613 6.213623 2.587616c1.6479797 1.6568298 2.5737915 3.9039307 2.5737915 6.24704l0 0c0 4.879242 -3.9342651 8.834656 -8.787415 8.834656l0 0c-4.8531494 0 -8.787384 -3.9554138 -8.787384 -8.834656z" fill-rule="evenodd"/><path fill="#cfe2f3" d="m453.14172 457.1404l0 0c0 -4.879242 3.9342651 -8.834625 8.787415 -8.834625l0 0c2.3305664 0 4.565674 0.93078613 6.213623 2.5875854c1.6479492 1.6568298 2.573761 3.9039612 2.573761 6.24704l0 0c0 4.879242 -3.9342346 8.834656 -8.787384 8.834656l0 0c-4.8531494 0 -8.787415 -3.9554138 -8.787415 -8.834656z" fill-rule="evenodd"/><path stroke="#999999" stroke-width="1.0" stroke-linejoin="round" stroke-linecap="butt" d="m453.14172 457.1404l0 0c0 -4.879242 3.9342651 -8.834625 8.787415 -8.834625l0 0c2.3305664 0 4.565674 0.93078613 6.213623 2.5875854c1.6479492 1.6568298 2.573761 3.9039612 2.573761 6.24704l0 0c0 4.879242 -3.9342346 8.834656 -8.787384 8.834656l0 0c-4.8531494 0 -8.787415 -3.9554138 -8.787415 -8.834656z" fill-rule="evenodd"/><path fill="#cfe2f3" d="m484.62335 457.28217l0 0c0 -4.879242 3.9342651 -8.834656 8.787415 -8.834656l0 0c2.3305664 0 4.565674 0.93078613 6.213623 2.587616c1.6479492 1.6567993 2.573761 3.9039307 2.573761 6.24704l0 0c0 4.879242 -3.9342346 8.834625 -8.787384 8.834625l0 0c-4.8531494 0 -8.787415 -3.9553833 -8.787415 -8.834625z" fill-rule="evenodd"/><path stroke="#999999" stroke-width="1.0" stroke-linejoin="round" stroke-linecap="butt" d="m484.62335 457.28217l0 0c0 -4.879242 3.9342651 -8.834656 8.787415 -8.834656l0 0c2.3305664 0 4.565674 0.93078613 6.213623 2.587616c1.6479492 1.6567993 2.573761 3.9039307 2.573761 6.24704l0 0c0 4.879242 -3.9342346 8.834625 -8.787384 8.834625l0 0c-4.8531494 0 -8.787415 -3.9553833 -8.787415 -8.834625z" fill-rule="evenodd"/><path fill="#cfe2f3" d="m514.8412 457.28217l0 0c0 -4.879242 3.9342651 -8.834656 8.787415 -8.834656l0 0c2.3305664 0 4.565674 0.93078613 6.213623 2.587616c1.6479492 1.6567993 2.5737915 3.9039307 2.5737915 6.24704l0 0c0 4.879242 -3.9342651 8.834625 -8.787415 8.834625l0 0c-4.8531494 0 -8.787415 -3.9553833 -8.787415 -8.834625z" fill-rule="evenodd"/><path stroke="#999999" stroke-width="1.0" stroke-linejoin="round" stroke-linecap="butt" d="m514.8412 457.28217l0 0c0 -4.879242 3.9342651 -8.834656 8.787415 -8.834656l0 0c2.3305664 0 4.565674 0.93078613 6.213623 2.587616c1.6479492 1.6567993 2.5737915 3.9039307 2.5737915 6.24704l0 0c0 4.879242 -3.9342651 8.834625 -8.787415 8.834625l0 0c-4.8531494 0 -8.787415 -3.9553833 -8.787415 -8.834625z" fill-rule="evenodd"/><path fill="#cfe2f3" d="m550.40027 457.28217l0 0c0 -4.879242 3.9342651 -8.834656 8.787415 -8.834656l0 0c2.3305664 0 4.565674 0.93078613 6.213623 2.587616c1.6479492 1.6567993 2.5737305 3.9039307 2.5737305 6.24704l0 0c0 4.879242 -3.934204 8.834625 -8.7873535 8.834625l0 0c-4.8531494 0 -8.787415 -3.9553833 -8.787415 -8.834625z" fill-rule="evenodd"/><path stroke="#999999" stroke-width="1.0" stroke-linejoin="round" stroke-linecap="butt" d="m550.40027 457.28217l0 0c0 -4.879242 3.9342651 -8.834656 8.787415 -8.834656l0 0c2.3305664 0 4.565674 0.93078613 6.213623 2.587616c1.6479492 1.6567993 2.5737305 3.9039307 2.5737305 6.24704l0 0c0 4.879242 -3.934204 8.834625 -8.7873535 8.834625l0 0c-4.8531494 0 -8.787415 -3.9553833 -8.787415 -8.834625z" fill-rule="evenodd"/><path fill="#cfe2f3" d="m310.41733 402.02493l0 0c0 -4.879242 3.9342346 -8.834656 8.787384 -8.834656l0 0c2.3305664 0 4.565674 0.93081665 6.2136536 2.587616c1.6479492 1.6568298 2.573761 3.9039612 2.573761 6.24704l0 0c0 4.879242 -3.9342651 8.834656 -8.787415 8.834656l0 0c-4.8531494 0 -8.787384 -3.9554138 -8.787384 -8.834656z" fill-rule="evenodd"/><path stroke="#999999" stroke-width="1.0" stroke-linejoin="round" stroke-linecap="butt" d="m310.41733 402.02493l0 0c0 -4.879242 3.9342346 -8.834656 8.787384 -8.834656l0 0c2.3305664 0 4.565674 0.93081665 6.2136536 2.587616c1.6479492 1.6568298 2.573761 3.9039612 2.573761 6.24704l0 0c0 4.879242 -3.9342651 8.834656 -8.787415 8.834656l0 0c-4.8531494 0 -8.787384 -3.9554138 -8.787384 -8.834656z" fill-rule="evenodd"/><path fill="#cfe2f3" d="m338.2454 401.73883l0 0c0 -4.8792114 3.9342651 -8.834625 8.787415 -8.834625l0 0c2.3305664 0 4.565674 0.93078613 6.213623 2.587616c1.6479797 1.6567993 2.5737915 3.9039307 2.5737915 6.2470093l0 0c0 4.879242 -3.9342651 8.834656 -8.787415 8.834656l0 0c-4.8531494 0 -8.787415 -3.9554138 -8.787415 -8.834656z" fill-rule="evenodd"/><path stroke="#999999" stroke-width="1.0" stroke-linejoin="round" stroke-linecap="butt" d="m338.2454 401.73883l0 0c0 -4.8792114 3.9342651 -8.834625 8.787415 -8.834625l0 0c2.3305664 0 4.565674 0.93078613 6.213623 2.587616c1.6479797 1.6567993 2.5737915 3.9039307 2.5737915 6.2470093l0 0c0 4.879242 -3.9342651 8.834656 -8.787415 8.834656l0 0c-4.8531494 0 -8.787415 -3.9554138 -8.787415 -8.834656z" fill-rule="evenodd"/><path fill="#cfe2f3" d="m367.57742 401.73883l0 0c0 -4.8792114 3.9342651 -8.834625 8.787415 -8.834625l0 0c2.3305664 0 4.565674 0.93078613 6.213623 2.587616c1.6479492 1.6567993 2.573761 3.9039307 2.573761 6.2470093l0 0c0 4.879242 -3.9342346 8.834656 -8.787384 8.834656l0 0c-4.8531494 0 -8.787415 -3.9554138 -8.787415 -8.834656z" fill-rule="evenodd"/><path stroke="#999999" stroke-width="1.0" stroke-linejoin="round" stroke-linecap="butt" d="m367.57742 401.73883l0 0c0 -4.8792114 3.9342651 -8.834625 8.787415 -8.834625l0 0c2.3305664 0 4.565674 0.93078613 6.213623 2.587616c1.6479492 1.6567993 2.573761 3.9039307 2.573761 6.2470093l0 0c0 4.879242 -3.9342346 8.834656 -8.787384 8.834656l0 0c-4.8531494 0 -8.787415 -3.9554138 -8.787415 -8.834656z" fill-rule="evenodd"/><path fill="#cfe2f3" d="m396.4462 401.73883l0 0c0 -4.8792114 3.9342651 -8.834625 8.787384 -8.834625l0 0c2.3305664 0 4.565674 0.93078613 6.2136536 2.587616c1.6479492 1.6567993 2.573761 3.9039307 2.573761 6.2470093l0 0c0 4.879242 -3.9342651 8.834656 -8.787415 8.834656l0 0c-4.853119 0 -8.787384 -3.9554138 -8.787384 -8.834656z" fill-rule="evenodd"/><path stroke="#999999" stroke-width="1.0" stroke-linejoin="round" stroke-linecap="butt" d="m396.4462 401.73883l0 0c0 -4.8792114 3.9342651 -8.834625 8.787384 -8.834625l0 0c2.3305664 0 4.565674 0.93078613 6.2136536 2.587616c1.6479492 1.6567993 2.573761 3.9039307 2.573761 6.2470093l0 0c0 4.879242 -3.9342651 8.834656 -8.787415 8.834656l0 0c-4.853119 0 -8.787384 -3.9554138 -8.787384 -8.834656z" fill-rule="evenodd"/><path fill="#cfe2f3" d="m425.31366 401.8819l0 0c0 -4.879242 3.9342346 -8.834656 8.787384 -8.834656l0 0c2.3305664 0 4.565674 0.93078613 6.213623 2.587616c1.6479797 1.6567993 2.5737915 3.9039307 2.5737915 6.24704l0 0c0 4.879242 -3.9342651 8.834625 -8.787415 8.834625l0 0c-4.8531494 0 -8.787384 -3.9553833 -8.787384 -8.834625z" fill-rule="evenodd"/><path stroke="#999999" stroke-width="1.0" stroke-linejoin="round" stroke-linecap="butt" d="m425.31366 401.8819l0 0c0 -4.879242 3.9342346 -8.834656 8.787384 -8.834656l0 0c2.3305664 0 4.565674 0.93078613 6.213623 2.587616c1.6479797 1.6567993 2.5737915 3.9039307 2.5737915 6.24704l0 0c0 4.879242 -3.9342651 8.834625 -8.787415 8.834625l0 0c-4.8531494 0 -8.787384 -3.9553833 -8.787384 -8.834625z" fill-rule="evenodd"/><path fill="#a64d79" d="m453.14172 401.5958l0 0c0 -4.879242 3.9342651 -8.834625 8.787415 -8.834625l0 0c2.3305664 0 4.565674 0.93078613 6.213623 2.5875854c1.6479492 1.6568298 2.573761 3.9039612 2.573761 6.24704l0 0c0 4.879242 -3.9342346 8.834656 -8.787384 8.834656l0 0c-4.8531494 0 -8.787415 -3.9554138 -8.787415 -8.834656z" fill-rule="evenodd"/><path stroke="#a64d79" stroke-width="1.0" stroke-linejoin="round" stroke-linecap="butt" d="m453.14172 401.5958l0 0c0 -4.879242 3.9342651 -8.834625 8.787415 -8.834625l0 0c2.3305664 0 4.565674 0.93078613 6.213623 2.5875854c1.6479492 1.6568298 2.573761 3.9039612 2.573761 6.24704l0 0c0 4.879242 -3.9342346 8.834656 -8.787384 8.834656l0 0c-4.8531494 0 -8.787415 -3.9554138 -8.787415 -8.834656z" fill-rule="evenodd"/><path fill="#a64d79" d="m484.62335 401.73752l0 0c0 -4.8792114 3.9342651 -8.834625 8.787415 -8.834625l0 0c2.3305664 0 4.565674 0.93078613 6.213623 2.587616c1.6479492 1.6567993 2.573761 3.9039307 2.573761 6.2470093l0 0c0 4.879242 -3.9342346 8.834656 -8.787384 8.834656l0 0c-4.8531494 0 -8.787415 -3.9554138 -8.787415 -8.834656z" fill-rule="evenodd"/><path stroke="#a64d79" stroke-width="1.0" stroke-linejoin="round" stroke-linecap="butt" d="m484.62335 401.73752l0 0c0 -4.8792114 3.9342651 -8.834625 8.787415 -8.834625l0 0c2.3305664 0 4.565674 0.93078613 6.213623 2.587616c1.6479492 1.6567993 2.573761 3.9039307 2.573761 6.2470093l0 0c0 4.879242 -3.9342346 8.834656 -8.787384 8.834656l0 0c-4.8531494 0 -8.787415 -3.9554138 -8.787415 -8.834656z" fill-rule="evenodd"/><path fill="#cfe2f3" d="m514.8412 401.73752l0 0c0 -4.8792114 3.9342651 -8.834625 8.787415 -8.834625l0 0c2.3305664 0 4.565674 0.93078613 6.213623 2.587616c1.6479492 1.6567993 2.5737915 3.9039307 2.5737915 6.2470093l0 0c0 4.879242 -3.9342651 8.834656 -8.787415 8.834656l0 0c-4.8531494 0 -8.787415 -3.9554138 -8.787415 -8.834656z" fill-rule="evenodd"/><path stroke="#999999" stroke-width="1.0" stroke-linejoin="round" stroke-linecap="butt" d="m514.8412 401.73752l0 0c0 -4.8792114 3.9342651 -8.834625 8.787415 -8.834625l0 0c2.3305664 0 4.565674 0.93078613 6.213623 2.587616c1.6479492 1.6567993 2.5737915 3.9039307 2.5737915 6.2470093l0 0c0 4.879242 -3.9342651 8.834656 -8.787415 8.834656l0 0c-4.8531494 0 -8.787415 -3.9554138 -8.787415 -8.834656z" fill-rule="evenodd"/><path fill="#cfe2f3" d="m550.40027 401.73752l0 0c0 -4.8792114 3.9342651 -8.834625 8.787415 -8.834625l0 0c2.3305664 0 4.565674 0.93078613 6.213623 2.587616c1.6479492 1.6567993 2.5737305 3.9039307 2.5737305 6.2470093l0 0c0 4.879242 -3.934204 8.834656 -8.7873535 8.834656l0 0c-4.8531494 0 -8.787415 -3.9554138 -8.787415 -8.834656z" fill-rule="evenodd"/><path stroke="#999999" stroke-width="1.0" stroke-linejoin="round" stroke-linecap="butt" d="m550.40027 401.73752l0 0c0 -4.8792114 3.9342651 -8.834625 8.787415 -8.834625l0 0c2.3305664 0 4.565674 0.93078613 6.213623 2.587616c1.6479492 1.6567993 2.5737305 3.9039307 2.5737305 6.2470093l0 0c0 4.879242 -3.934204 8.834656 -8.7873535 8.834656l0 0c-4.8531494 0 -8.787415 -3.9554138 -8.787415 -8.834656z" fill-rule="evenodd"/><path fill="#cfe2f3" d="m310.41733 430.92258l0 0c0 -4.879242 3.9342346 -8.834656 8.787384 -8.834656l0 0c2.3305664 0 4.565674 0.93078613 6.2136536 2.587616c1.6479492 1.6568298 2.573761 3.9039307 2.573761 6.24704l0 0c0 4.879242 -3.9342651 8.834656 -8.787415 8.834656l0 0c-4.8531494 0 -8.787384 -3.9554138 -8.787384 -8.834656z" fill-rule="evenodd"/><path stroke="#999999" stroke-width="1.0" stroke-linejoin="round" stroke-linecap="butt" d="m310.41733 430.92258l0 0c0 -4.879242 3.9342346 -8.834656 8.787384 -8.834656l0 0c2.3305664 0 4.565674 0.93078613 6.2136536 2.587616c1.6479492 1.6568298 2.573761 3.9039307 2.573761 6.24704l0 0c0 4.879242 -3.9342651 8.834656 -8.787415 8.834656l0 0c-4.8531494 0 -8.787384 -3.9554138 -8.787384 -8.834656z" fill-rule="evenodd"/><path fill="#cfe2f3" d="m338.2454 430.63647l0 0c0 -4.879242 3.9342651 -8.834625 8.787415 -8.834625l0 0c2.3305664 0 4.565674 0.93078613 6.213623 2.5875854c1.6479797 1.6568298 2.5737915 3.9039612 2.5737915 6.24704l0 0c0 4.879242 -3.9342651 8.834656 -8.787415 8.834656l0 0c-4.8531494 0 -8.787415 -3.9554138 -8.787415 -8.834656z" fill-rule="evenodd"/><path stroke="#999999" stroke-width="1.0" stroke-linejoin="round" stroke-linecap="butt" d="m338.2454 430.63647l0 0c0 -4.879242 3.9342651 -8.834625 8.787415 -8.834625l0 0c2.3305664 0 4.565674 0.93078613 6.213623 2.5875854c1.6479797 1.6568298 2.5737915 3.9039612 2.5737915 6.24704l0 0c0 4.879242 -3.9342651 8.834656 -8.787415 8.834656l0 0c-4.8531494 0 -8.787415 -3.9554138 -8.787415 -8.834656z" fill-rule="evenodd"/><path fill="#cfe2f3" d="m367.57742 430.63647l0 0c0 -4.879242 3.9342651 -8.834625 8.787415 -8.834625l0 0c2.3305664 0 4.565674 0.93078613 6.213623 2.5875854c1.6479492 1.6568298 2.573761 3.9039612 2.573761 6.24704l0 0c0 4.879242 -3.9342346 8.834656 -8.787384 8.834656l0 0c-4.8531494 0 -8.787415 -3.9554138 -8.787415 -8.834656z" fill-rule="evenodd"/><path stroke="#999999" stroke-width="1.0" stroke-linejoin="round" stroke-linecap="butt" d="m367.57742 430.63647l0 0c0 -4.879242 3.9342651 -8.834625 8.787415 -8.834625l0 0c2.3305664 0 4.565674 0.93078613 6.213623 2.5875854c1.6479492 1.6568298 2.573761 3.9039612 2.573761 6.24704l0 0c0 4.879242 -3.9342346 8.834656 -8.787384 8.834656l0 0c-4.8531494 0 -8.787415 -3.9554138 -8.787415 -8.834656z" fill-rule="evenodd"/><path fill="#a64d79" d="m396.4462 430.63647l0 0c0 -4.879242 3.9342651 -8.834625 8.787384 -8.834625l0 0c2.3305664 0 4.565674 0.93078613 6.2136536 2.5875854c1.6479492 1.6568298 2.573761 3.9039612 2.573761 6.24704l0 0c0 4.879242 -3.9342651 8.834656 -8.787415 8.834656l0 0c-4.853119 0 -8.787384 -3.9554138 -8.787384 -8.834656z" fill-rule="evenodd"/><path stroke="#a64d79" stroke-width="1.0" stroke-linejoin="round" stroke-linecap="butt" d="m396.4462 430.63647l0 0c0 -4.879242 3.9342651 -8.834625 8.787384 -8.834625l0 0c2.3305664 0 4.565674 0.93078613 6.2136536 2.5875854c1.6479492 1.6568298 2.573761 3.9039612 2.573761 6.24704l0 0c0 4.879242 -3.9342651 8.834656 -8.787415 8.834656l0 0c-4.853119 0 -8.787384 -3.9554138 -8.787384 -8.834656z" fill-rule="evenodd"/><path fill="#a64d79" d="m425.31366 430.77954l0 0c0 -4.879242 3.9342346 -8.834656 8.787384 -8.834656l0 0c2.3305664 0 4.565674 0.93078613 6.213623 2.587616c1.6479797 1.6567993 2.5737915 3.9039307 2.5737915 6.24704l0 0c0 4.8792114 -3.9342651 8.834625 -8.787415 8.834625l0 0c-4.8531494 0 -8.787384 -3.9554138 -8.787384 -8.834625z" fill-rule="evenodd"/><path stroke="#a64d79" stroke-width="1.0" stroke-linejoin="round" stroke-linecap="butt" d="m425.31366 430.77954l0 0c0 -4.879242 3.9342346 -8.834656 8.787384 -8.834656l0 0c2.3305664 0 4.565674 0.93078613 6.213623 2.587616c1.6479797 1.6567993 2.5737915 3.9039307 2.5737915 6.24704l0 0c0 4.8792114 -3.9342651 8.834625 -8.787415 8.834625l0 0c-4.8531494 0 -8.787384 -3.9554138 -8.787384 -8.834625z" fill-rule="evenodd"/><path fill="#cfe2f3" d="m453.14172 430.49344l0 0c0 -4.879242 3.9342651 -8.834656 8.787415 -8.834656l0 0c2.3305664 0 4.565674 0.93078613 6.213623 2.587616c1.6479492 1.6568298 2.573761 3.9039307 2.573761 6.24704l0 0c0 4.879242 -3.9342346 8.834656 -8.787384 8.834656l0 0c-4.8531494 0 -8.787415 -3.9554138 -8.787415 -8.834656z" fill-rule="evenodd"/><path stroke="#999999" stroke-width="1.0" stroke-linejoin="round" stroke-linecap="butt" d="m453.14172 430.49344l0 0c0 -4.879242 3.9342651 -8.834656 8.787415 -8.834656l0 0c2.3305664 0 4.565674 0.93078613 6.213623 2.587616c1.6479492 1.6568298 2.573761 3.9039307 2.573761 6.24704l0 0c0 4.879242 -3.9342346 8.834656 -8.787384 8.834656l0 0c-4.8531494 0 -8.787415 -3.9554138 -8.787415 -8.834656z" fill-rule="evenodd"/><path fill="#cfe2f3" d="m484.62335 430.63516l0 0c0 -4.879242 3.9342651 -8.834625 8.787415 -8.834625l0 0c2.3305664 0 4.565674 0.93078613 6.213623 2.5875854c1.6479492 1.6568298 2.573761 3.9039612 2.573761 6.24704l0 0c0 4.879242 -3.9342346 8.834656 -8.787384 8.834656l0 0c-4.8531494 0 -8.787415 -3.9554138 -8.787415 -8.834656z" fill-rule="evenodd"/><path stroke="#999999" stroke-width="1.0" stroke-linejoin="round" stroke-linecap="butt" d="m484.62335 430.63516l0 0c0 -4.879242 3.9342651 -8.834625 8.787415 -8.834625l0 0c2.3305664 0 4.565674 0.93078613 6.213623 2.5875854c1.6479492 1.6568298 2.573761 3.9039612 2.573761 6.24704l0 0c0 4.879242 -3.9342346 8.834656 -8.787384 8.834656l0 0c-4.8531494 0 -8.787415 -3.9554138 -8.787415 -8.834656z" fill-rule="evenodd"/><path fill="#cfe2f3" d="m514.8412 430.63516l0 0c0 -4.879242 3.9342651 -8.834625 8.787415 -8.834625l0 0c2.3305664 0 4.565674 0.93078613 6.213623 2.5875854c1.6479492 1.6568298 2.5737915 3.9039612 2.5737915 6.24704l0 0c0 4.879242 -3.9342651 8.834656 -8.787415 8.834656l0 0c-4.8531494 0 -8.787415 -3.9554138 -8.787415 -8.834656z" fill-rule="evenodd"/><path stroke="#999999" stroke-width="1.0" stroke-linejoin="round" stroke-linecap="butt" d="m514.8412 430.63516l0 0c0 -4.879242 3.9342651 -8.834625 8.787415 -8.834625l0 0c2.3305664 0 4.565674 0.93078613 6.213623 2.5875854c1.6479492 1.6568298 2.5737915 3.9039612 2.5737915 6.24704l0 0c0 4.879242 -3.9342651 8.834656 -8.787415 8.834656l0 0c-4.8531494 0 -8.787415 -3.9554138 -8.787415 -8.834656z" fill-rule="evenodd"/><path fill="#cfe2f3" d="m550.40027 430.63516l0 0c0 -4.879242 3.9342651 -8.834625 8.787415 -8.834625l0 0c2.3305664 0 4.565674 0.93078613 6.213623 2.5875854c1.6479492 1.6568298 2.5737305 3.9039612 2.5737305 6.24704l0 0c0 4.879242 -3.934204 8.834656 -8.7873535 8.834656l0 0c-4.8531494 0 -8.787415 -3.9554138 -8.787415 -8.834656z" fill-rule="evenodd"/><path stroke="#999999" stroke-width="1.0" stroke-linejoin="round" stroke-linecap="butt" d="m550.40027 430.63516l0 0c0 -4.879242 3.9342651 -8.834625 8.787415 -8.834625l0 0c2.3305664 0 4.565674 0.93078613 6.213623 2.5875854c1.6479492 1.6568298 2.5737305 3.9039612 2.5737305 6.24704l0 0c0 4.879242 -3.934204 8.834656 -8.7873535 8.834656l0 0c-4.8531494 0 -8.787415 -3.9554138 -8.787415 -8.834656z" fill-rule="evenodd"/><path fill="#cfe2f3" d="m307.8924 373.1273l0 0c0 -4.879242 3.9342346 -8.834625 8.787384 -8.834625l0 0c2.3305664 0 4.565674 0.93078613 6.2136536 2.5875854c1.6479492 1.6568298 2.573761 3.9039612 2.573761 6.24704l0 0c0 4.879242 -3.9342651 8.834656 -8.787415 8.834656l0 0c-4.8531494 0 -8.787384 -3.9554138 -8.787384 -8.834656z" fill-rule="evenodd"/><path stroke="#999999" stroke-width="1.0" stroke-linejoin="round" stroke-linecap="butt" d="m307.8924 373.1273l0 0c0 -4.879242 3.9342346 -8.834625 8.787384 -8.834625l0 0c2.3305664 0 4.565674 0.93078613 6.2136536 2.5875854c1.6479492 1.6568298 2.573761 3.9039612 2.573761 6.24704l0 0c0 4.879242 -3.9342651 8.834656 -8.787415 8.834656l0 0c-4.8531494 0 -8.787384 -3.9554138 -8.787384 -8.834656z" fill-rule="evenodd"/><path fill="#cfe2f3" d="m335.72046 372.84122l0 0c0 -4.879242 3.9342651 -8.834656 8.787415 -8.834656l0 0c2.3305664 0 4.565674 0.93078613 6.213623 2.587616c1.6479797 1.6567993 2.5737915 3.9039307 2.5737915 6.24704l0 0c0 4.879242 -3.9342651 8.834625 -8.787415 8.834625l0 0c-4.8531494 0 -8.787415 -3.9553833 -8.787415 -8.834625z" fill-rule="evenodd"/><path stroke="#999999" stroke-width="1.0" stroke-linejoin="round" stroke-linecap="butt" d="m335.72046 372.84122l0 0c0 -4.879242 3.9342651 -8.834656 8.787415 -8.834656l0 0c2.3305664 0 4.565674 0.93078613 6.213623 2.587616c1.6479797 1.6567993 2.5737915 3.9039307 2.5737915 6.24704l0 0c0 4.879242 -3.9342651 8.834625 -8.787415 8.834625l0 0c-4.8531494 0 -8.787415 -3.9553833 -8.787415 -8.834625z" fill-rule="evenodd"/><path fill="#cfe2f3" d="m365.0525 372.84122l0 0c0 -4.879242 3.9342651 -8.834656 8.787415 -8.834656l0 0c2.3305664 0 4.565674 0.93078613 6.213623 2.587616c1.6479492 1.6567993 2.573761 3.9039307 2.573761 6.24704l0 0c0 4.879242 -3.9342346 8.834625 -8.787384 8.834625l0 0c-4.8531494 0 -8.787415 -3.9553833 -8.787415 -8.834625z" fill-rule="evenodd"/><path stroke="#999999" stroke-width="1.0" stroke-linejoin="round" stroke-linecap="butt" d="m365.0525 372.84122l0 0c0 -4.879242 3.9342651 -8.834656 8.787415 -8.834656l0 0c2.3305664 0 4.565674 0.93078613 6.213623 2.587616c1.6479492 1.6567993 2.573761 3.9039307 2.573761 6.24704l0 0c0 4.879242 -3.9342346 8.834625 -8.787384 8.834625l0 0c-4.8531494 0 -8.787415 -3.9553833 -8.787415 -8.834625z" fill-rule="evenodd"/><path fill="#cfe2f3" d="m393.92126 372.84122l0 0c0 -4.879242 3.9342346 -8.834656 8.787384 -8.834656l0 0c2.3305664 0 4.565674 0.93078613 6.2136536 2.587616c1.6479492 1.6567993 2.573761 3.9039307 2.573761 6.24704l0 0c0 4.879242 -3.9342651 8.834625 -8.787415 8.834625l0 0c-4.8531494 0 -8.787384 -3.9553833 -8.787384 -8.834625z" fill-rule="evenodd"/><path stroke="#999999" stroke-width="1.0" stroke-linejoin="round" stroke-linecap="butt" d="m393.92126 372.84122l0 0c0 -4.879242 3.9342346 -8.834656 8.787384 -8.834656l0 0c2.3305664 0 4.565674 0.93078613 6.2136536 2.587616c1.6479492 1.6567993 2.573761 3.9039307 2.573761 6.24704l0 0c0 4.879242 -3.9342651 8.834625 -8.787415 8.834625l0 0c-4.8531494 0 -8.787384 -3.9553833 -8.787384 -8.834625z" fill-rule="evenodd"/><path fill="#cfe2f3" d="m422.78873 372.98425l0 0c0 -4.879242 3.9342346 -8.834656 8.787384 -8.834656l0 0c2.3305664 0 4.565674 0.93078613 6.213623 2.587616c1.6479797 1.6568298 2.5737915 3.9039307 2.5737915 6.24704l0 0c0 4.879242 -3.9342651 8.834656 -8.787415 8.834656l0 0c-4.8531494 0 -8.787384 -3.9554138 -8.787384 -8.834656z" fill-rule="evenodd"/><path stroke="#999999" stroke-width="1.0" stroke-linejoin="round" stroke-linecap="butt" d="m422.78873 372.98425l0 0c0 -4.879242 3.9342346 -8.834656 8.787384 -8.834656l0 0c2.3305664 0 4.565674 0.93078613 6.213623 2.587616c1.6479797 1.6568298 2.5737915 3.9039307 2.5737915 6.24704l0 0c0 4.879242 -3.9342651 8.834656 -8.787415 8.834656l0 0c-4.8531494 0 -8.787384 -3.9554138 -8.787384 -8.834656z" fill-rule="evenodd"/><path fill="#cfe2f3" d="m450.6168 372.69815l0 0c0 -4.879242 3.9342651 -8.834625 8.787415 -8.834625l0 0c2.3305664 0 4.565674 0.93078613 6.213623 2.5875854c1.6479492 1.6568298 2.573761 3.9039612 2.573761 6.24704l0 0c0 4.879242 -3.9342346 8.834656 -8.787384 8.834656l0 0c-4.8531494 0 -8.787415 -3.9554138 -8.787415 -8.834656z" fill-rule="evenodd"/><path stroke="#999999" stroke-width="1.0" stroke-linejoin="round" stroke-linecap="butt" d="m450.6168 372.69815l0 0c0 -4.879242 3.9342651 -8.834625 8.787415 -8.834625l0 0c2.3305664 0 4.565674 0.93078613 6.213623 2.5875854c1.6479492 1.6568298 2.573761 3.9039612 2.573761 6.24704l0 0c0 4.879242 -3.9342346 8.834656 -8.787384 8.834656l0 0c-4.8531494 0 -8.787415 -3.9554138 -8.787415 -8.834656z" fill-rule="evenodd"/><path fill="#cfe2f3" d="m482.09842 372.8399l0 0c0 -4.879242 3.9342651 -8.834656 8.787415 -8.834656l0 0c2.3305664 0 4.565674 0.93078613 6.213623 2.587616c1.6479492 1.6567993 2.573761 3.9039307 2.573761 6.24704l0 0c0 4.879242 -3.9342346 8.834625 -8.787384 8.834625l0 0c-4.8531494 0 -8.787415 -3.9553833 -8.787415 -8.834625z" fill-rule="evenodd"/><path stroke="#999999" stroke-width="1.0" stroke-linejoin="round" stroke-linecap="butt" d="m482.09842 372.8399l0 0c0 -4.879242 3.9342651 -8.834656 8.787415 -8.834656l0 0c2.3305664 0 4.565674 0.93078613 6.213623 2.587616c1.6479492 1.6567993 2.573761 3.9039307 2.573761 6.24704l0 0c0 4.879242 -3.9342346 8.834625 -8.787384 8.834625l0 0c-4.8531494 0 -8.787415 -3.9553833 -8.787415 -8.834625z" fill-rule="evenodd"/><path fill="#a64d79" d="m512.3163 372.8399l0 0c0 -4.879242 3.9342651 -8.834656 8.787415 -8.834656l0 0c2.3305664 0 4.565674 0.93078613 6.213623 2.587616c1.6479492 1.6567993 2.5737305 3.9039307 2.5737305 6.24704l0 0c0 4.879242 -3.934204 8.834625 -8.7873535 8.834625l0 0c-4.8531494 0 -8.787415 -3.9553833 -8.787415 -8.834625z" fill-rule="evenodd"/><path stroke="#a64d79" stroke-width="1.0" stroke-linejoin="round" stroke-linecap="butt" d="m512.3163 372.8399l0 0c0 -4.879242 3.9342651 -8.834656 8.787415 -8.834656l0 0c2.3305664 0 4.565674 0.93078613 6.213623 2.587616c1.6479492 1.6567993 2.5737305 3.9039307 2.5737305 6.24704l0 0c0 4.879242 -3.934204 8.834625 -8.7873535 8.834625l0 0c-4.8531494 0 -8.787415 -3.9553833 -8.787415 -8.834625z" fill-rule="evenodd"/><path fill="#cfe2f3" d="m547.8753 372.8399l0 0c0 -4.879242 3.9342651 -8.834656 8.787415 -8.834656l0 0c2.3305664 0 4.565674 0.93078613 6.213623 2.587616c1.6479492 1.6567993 2.5737915 3.9039307 2.5737915 6.24704l0 0c0 4.879242 -3.9342651 8.834625 -8.787415 8.834625l0 0c-4.8531494 0 -8.787415 -3.9553833 -8.787415 -8.834625z" fill-rule="evenodd"/><path stroke="#999999" stroke-width="1.0" stroke-linejoin="round" stroke-linecap="butt" d="m547.8753 372.8399l0 0c0 -4.879242 3.9342651 -8.834656 8.787415 -8.834656l0 0c2.3305664 0 4.565674 0.93078613 6.213623 2.587616c1.6479492 1.6567993 2.5737915 3.9039307 2.5737915 6.24704l0 0c0 4.879242 -3.9342651 8.834625 -8.787415 8.834625l0 0c-4.8531494 0 -8.787415 -3.9553833 -8.787415 -8.834625z" fill-rule="evenodd"/><path fill="#cfe2f3" d="m307.8924 344.22964l0 0c0 -4.8792114 3.9342346 -8.834625 8.787384 -8.834625l0 0c2.3305664 0 4.565674 0.93078613 6.2136536 2.587616c1.6479492 1.6567993 2.573761 3.9039307 2.573761 6.2470093l0 0c0 4.879242 -3.9342651 8.834656 -8.787415 8.834656l0 0c-4.8531494 0 -8.787384 -3.9554138 -8.787384 -8.834656z" fill-rule="evenodd"/><path stroke="#999999" stroke-width="1.0" stroke-linejoin="round" stroke-linecap="butt" d="m307.8924 344.22964l0 0c0 -4.8792114 3.9342346 -8.834625 8.787384 -8.834625l0 0c2.3305664 0 4.565674 0.93078613 6.2136536 2.587616c1.6479492 1.6567993 2.573761 3.9039307 2.573761 6.2470093l0 0c0 4.879242 -3.9342651 8.834656 -8.787415 8.834656l0 0c-4.8531494 0 -8.787384 -3.9554138 -8.787384 -8.834656z" fill-rule="evenodd"/><path fill="#cfe2f3" d="m335.72046 343.94357l0 0c0 -4.879242 3.9342651 -8.834656 8.787415 -8.834656l0 0c2.3305664 0 4.565674 0.93078613 6.213623 2.587616c1.6479797 1.6568298 2.5737915 3.9039307 2.5737915 6.24704l0 0c0 4.879242 -3.9342651 8.834656 -8.787415 8.834656l0 0c-4.8531494 0 -8.787415 -3.9554138 -8.787415 -8.834656z" fill-rule="evenodd"/><path stroke="#999999" stroke-width="1.0" stroke-linejoin="round" stroke-linecap="butt" d="m335.72046 343.94357l0 0c0 -4.879242 3.9342651 -8.834656 8.787415 -8.834656l0 0c2.3305664 0 4.565674 0.93078613 6.213623 2.587616c1.6479797 1.6568298 2.5737915 3.9039307 2.5737915 6.24704l0 0c0 4.879242 -3.9342651 8.834656 -8.787415 8.834656l0 0c-4.8531494 0 -8.787415 -3.9554138 -8.787415 -8.834656z" fill-rule="evenodd"/><path fill="#cfe2f3" d="m365.0525 343.94357l0 0c0 -4.879242 3.9342651 -8.834656 8.787415 -8.834656l0 0c2.3305664 0 4.565674 0.93078613 6.213623 2.587616c1.6479492 1.6568298 2.573761 3.9039307 2.573761 6.24704l0 0c0 4.879242 -3.9342346 8.834656 -8.787384 8.834656l0 0c-4.8531494 0 -8.787415 -3.9554138 -8.787415 -8.834656z" fill-rule="evenodd"/><path stroke="#999999" stroke-width="1.0" stroke-linejoin="round" stroke-linecap="butt" d="m365.0525 343.94357l0 0c0 -4.879242 3.9342651 -8.834656 8.787415 -8.834656l0 0c2.3305664 0 4.565674 0.93078613 6.213623 2.587616c1.6479492 1.6568298 2.573761 3.9039307 2.573761 6.24704l0 0c0 4.879242 -3.9342346 8.834656 -8.787384 8.834656l0 0c-4.8531494 0 -8.787415 -3.9554138 -8.787415 -8.834656z" fill-rule="evenodd"/><path fill="#cfe2f3" d="m393.92126 343.94357l0 0c0 -4.879242 3.9342346 -8.834656 8.787384 -8.834656l0 0c2.3305664 0 4.565674 0.93078613 6.2136536 2.587616c1.6479492 1.6568298 2.573761 3.9039307 2.573761 6.24704l0 0c0 4.879242 -3.9342651 8.834656 -8.787415 8.834656l0 0c-4.8531494 0 -8.787384 -3.9554138 -8.787384 -8.834656z" fill-rule="evenodd"/><path stroke="#999999" stroke-width="1.0" stroke-linejoin="round" stroke-linecap="butt" d="m393.92126 343.94357l0 0c0 -4.879242 3.9342346 -8.834656 8.787384 -8.834656l0 0c2.3305664 0 4.565674 0.93078613 6.2136536 2.587616c1.6479492 1.6568298 2.573761 3.9039307 2.573761 6.24704l0 0c0 4.879242 -3.9342651 8.834656 -8.787415 8.834656l0 0c-4.8531494 0 -8.787384 -3.9554138 -8.787384 -8.834656z" fill-rule="evenodd"/><path fill="#cfe2f3" d="m422.78873 344.0866l0 0c0 -4.879242 3.9342346 -8.834625 8.787384 -8.834625l0 0c2.3305664 0 4.565674 0.93078613 6.213623 2.5875854c1.6479797 1.6568298 2.5737915 3.9039612 2.5737915 6.24704l0 0c0 4.879242 -3.9342651 8.834656 -8.787415 8.834656l0 0c-4.8531494 0 -8.787384 -3.9554138 -8.787384 -8.834656z" fill-rule="evenodd"/><path stroke="#999999" stroke-width="1.0" stroke-linejoin="round" stroke-linecap="butt" d="m422.78873 344.0866l0 0c0 -4.879242 3.9342346 -8.834625 8.787384 -8.834625l0 0c2.3305664 0 4.565674 0.93078613 6.213623 2.5875854c1.6479797 1.6568298 2.5737915 3.9039612 2.5737915 6.24704l0 0c0 4.879242 -3.9342651 8.834656 -8.787415 8.834656l0 0c-4.8531494 0 -8.787384 -3.9554138 -8.787384 -8.834656z" fill-rule="evenodd"/><path fill="#cfe2f3" d="m450.6168 343.80054l0 0c0 -4.879242 3.9342651 -8.834656 8.787415 -8.834656l0 0c2.3305664 0 4.565674 0.93078613 6.213623 2.587616c1.6479492 1.6567993 2.573761 3.9039307 2.573761 6.24704l0 0c0 4.879242 -3.9342346 8.834625 -8.787384 8.834625l0 0c-4.8531494 0 -8.787415 -3.9553833 -8.787415 -8.834625z" fill-rule="evenodd"/><path stroke="#999999" stroke-width="1.0" stroke-linejoin="round" stroke-linecap="butt" d="m450.6168 343.80054l0 0c0 -4.879242 3.9342651 -8.834656 8.787415 -8.834656l0 0c2.3305664 0 4.565674 0.93078613 6.213623 2.587616c1.6479492 1.6567993 2.573761 3.9039307 2.573761 6.24704l0 0c0 4.879242 -3.9342346 8.834625 -8.787384 8.834625l0 0c-4.8531494 0 -8.787415 -3.9553833 -8.787415 -8.834625z" fill-rule="evenodd"/><path fill="#cfe2f3" d="m482.09842 343.94226l0 0c0 -4.879242 3.9342651 -8.834656 8.787415 -8.834656l0 0c2.3305664 0 4.565674 0.93078613 6.213623 2.587616c1.6479492 1.6568298 2.573761 3.9039307 2.573761 6.24704l0 0c0 4.879242 -3.9342346 8.834656 -8.787384 8.834656l0 0c-4.8531494 0 -8.787415 -3.9554138 -8.787415 -8.834656z" fill-rule="evenodd"/><path stroke="#999999" stroke-width="1.0" stroke-linejoin="round" stroke-linecap="butt" d="m482.09842 343.94226l0 0c0 -4.879242 3.9342651 -8.834656 8.787415 -8.834656l0 0c2.3305664 0 4.565674 0.93078613 6.213623 2.587616c1.6479492 1.6568298 2.573761 3.9039307 2.573761 6.24704l0 0c0 4.879242 -3.9342346 8.834656 -8.787384 8.834656l0 0c-4.8531494 0 -8.787415 -3.9554138 -8.787415 -8.834656z" fill-rule="evenodd"/><path fill="#cfe2f3" d="m512.3163 343.94226l0 0c0 -4.879242 3.9342651 -8.834656 8.787415 -8.834656l0 0c2.3305664 0 4.565674 0.93078613 6.213623 2.587616c1.6479492 1.6568298 2.5737305 3.9039307 2.5737305 6.24704l0 0c0 4.879242 -3.934204 8.834656 -8.7873535 8.834656l0 0c-4.8531494 0 -8.787415 -3.9554138 -8.787415 -8.834656z" fill-rule="evenodd"/><path stroke="#999999" stroke-width="1.0" stroke-linejoin="round" stroke-linecap="butt" d="m512.3163 343.94226l0 0c0 -4.879242 3.9342651 -8.834656 8.787415 -8.834656l0 0c2.3305664 0 4.565674 0.93078613 6.213623 2.587616c1.6479492 1.6568298 2.5737305 3.9039307 2.5737305 6.24704l0 0c0 4.879242 -3.934204 8.834656 -8.7873535 8.834656l0 0c-4.8531494 0 -8.787415 -3.9554138 -8.787415 -8.834656z" fill-rule="evenodd"/><path fill="#cfe2f3" d="m547.8753 343.94226l0 0c0 -4.879242 3.9342651 -8.834656 8.787415 -8.834656l0 0c2.3305664 0 4.565674 0.93078613 6.213623 2.587616c1.6479492 1.6568298 2.5737915 3.9039307 2.5737915 6.24704l0 0c0 4.879242 -3.9342651 8.834656 -8.787415 8.834656l0 0c-4.8531494 0 -8.787415 -3.9554138 -8.787415 -8.834656z" fill-rule="evenodd"/><path stroke="#999999" stroke-width="1.0" stroke-linejoin="round" stroke-linecap="butt" d="m547.8753 343.94226l0 0c0 -4.879242 3.9342651 -8.834656 8.787415 -8.834656l0 0c2.3305664 0 4.565674 0.93078613 6.213623 2.587616c1.6479492 1.6568298 2.5737915 3.9039307 2.5737915 6.24704l0 0c0 4.879242 -3.9342651 8.834656 -8.787415 8.834656l0 0c-4.8531494 0 -8.787415 -3.9554138 -8.787415 -8.834656z" fill-rule="evenodd"/><path fill="#cfe2f3" d="m310.41733 314.9029l0 0c0 -4.879242 3.9342346 -8.834656 8.787384 -8.834656l0 0c2.3305664 0 4.565674 0.93078613 6.2136536 2.587616c1.6479492 1.6567993 2.573761 3.9039307 2.573761 6.24704l0 0c0 4.879242 -3.9342651 8.834625 -8.787415 8.834625l0 0c-4.8531494 0 -8.787384 -3.9553833 -8.787384 -8.834625z" fill-rule="evenodd"/><path stroke="#999999" stroke-width="1.0" stroke-linejoin="round" stroke-linecap="butt" d="m310.41733 314.9029l0 0c0 -4.879242 3.9342346 -8.834656 8.787384 -8.834656l0 0c2.3305664 0 4.565674 0.93078613 6.2136536 2.587616c1.6479492 1.6567993 2.573761 3.9039307 2.573761 6.24704l0 0c0 4.879242 -3.9342651 8.834625 -8.787415 8.834625l0 0c-4.8531494 0 -8.787384 -3.9553833 -8.787384 -8.834625z" fill-rule="evenodd"/><path fill="#cfe2f3" d="m338.2454 314.6168l0 0c0 -4.879242 3.9342651 -8.834625 8.787415 -8.834625l0 0c2.3305664 0 4.565674 0.93078613 6.213623 2.5875854c1.6479797 1.6568298 2.5737915 3.9039612 2.5737915 6.24704l0 0c0 4.879242 -3.9342651 8.834656 -8.787415 8.834656l0 0c-4.8531494 0 -8.787415 -3.9554138 -8.787415 -8.834656z" fill-rule="evenodd"/><path stroke="#999999" stroke-width="1.0" stroke-linejoin="round" stroke-linecap="butt" d="m338.2454 314.6168l0 0c0 -4.879242 3.9342651 -8.834625 8.787415 -8.834625l0 0c2.3305664 0 4.565674 0.93078613 6.213623 2.5875854c1.6479797 1.6568298 2.5737915 3.9039612 2.5737915 6.24704l0 0c0 4.879242 -3.9342651 8.834656 -8.787415 8.834656l0 0c-4.8531494 0 -8.787415 -3.9554138 -8.787415 -8.834656z" fill-rule="evenodd"/><path fill="#cfe2f3" d="m367.57742 314.6168l0 0c0 -4.879242 3.9342651 -8.834625 8.787415 -8.834625l0 0c2.3305664 0 4.565674 0.93078613 6.213623 2.5875854c1.6479492 1.6568298 2.573761 3.9039612 2.573761 6.24704l0 0c0 4.879242 -3.9342346 8.834656 -8.787384 8.834656l0 0c-4.8531494 0 -8.787415 -3.9554138 -8.787415 -8.834656z" fill-rule="evenodd"/><path stroke="#999999" stroke-width="1.0" stroke-linejoin="round" stroke-linecap="butt" d="m367.57742 314.6168l0 0c0 -4.879242 3.9342651 -8.834625 8.787415 -8.834625l0 0c2.3305664 0 4.565674 0.93078613 6.213623 2.5875854c1.6479492 1.6568298 2.573761 3.9039612 2.573761 6.24704l0 0c0 4.879242 -3.9342346 8.834656 -8.787384 8.834656l0 0c-4.8531494 0 -8.787415 -3.9554138 -8.787415 -8.834656z" fill-rule="evenodd"/><path fill="#cfe2f3" d="m396.4462 314.6168l0 0c0 -4.879242 3.9342651 -8.834625 8.787384 -8.834625l0 0c2.3305664 0 4.565674 0.93078613 6.2136536 2.5875854c1.6479492 1.6568298 2.573761 3.9039612 2.573761 6.24704l0 0c0 4.879242 -3.9342651 8.834656 -8.787415 8.834656l0 0c-4.853119 0 -8.787384 -3.9554138 -8.787384 -8.834656z" fill-rule="evenodd"/><path stroke="#999999" stroke-width="1.0" stroke-linejoin="round" stroke-linecap="butt" d="m396.4462 314.6168l0 0c0 -4.879242 3.9342651 -8.834625 8.787384 -8.834625l0 0c2.3305664 0 4.565674 0.93078613 6.2136536 2.5875854c1.6479492 1.6568298 2.573761 3.9039612 2.573761 6.24704l0 0c0 4.879242 -3.9342651 8.834656 -8.787415 8.834656l0 0c-4.853119 0 -8.787384 -3.9554138 -8.787384 -8.834656z" fill-rule="evenodd"/><path fill="#cfe2f3" d="m425.31366 314.75986l0 0c0 -4.879242 3.9342346 -8.834656 8.787384 -8.834656l0 0c2.3305664 0 4.565674 0.93078613 6.213623 2.587616c1.6479797 1.6567993 2.5737915 3.9039307 2.5737915 6.24704l0 0c0 4.8792114 -3.9342651 8.834625 -8.787415 8.834625l0 0c-4.8531494 0 -8.787384 -3.9554138 -8.787384 -8.834625z" fill-rule="evenodd"/><path stroke="#999999" stroke-width="1.0" stroke-linejoin="round" stroke-linecap="butt" d="m425.31366 314.75986l0 0c0 -4.879242 3.9342346 -8.834656 8.787384 -8.834656l0 0c2.3305664 0 4.565674 0.93078613 6.213623 2.587616c1.6479797 1.6567993 2.5737915 3.9039307 2.5737915 6.24704l0 0c0 4.8792114 -3.9342651 8.834625 -8.787415 8.834625l0 0c-4.8531494 0 -8.787384 -3.9554138 -8.787384 -8.834625z" fill-rule="evenodd"/><path fill="#cfe2f3" d="m453.14172 314.47375l0 0c0 -4.879242 3.9342651 -8.834656 8.787415 -8.834656l0 0c2.3305664 0 4.565674 0.93078613 6.213623 2.587616c1.6479492 1.6568298 2.573761 3.9039307 2.573761 6.24704l0 0c0 4.879242 -3.9342346 8.834656 -8.787384 8.834656l0 0c-4.8531494 0 -8.787415 -3.9554138 -8.787415 -8.834656z" fill-rule="evenodd"/><path stroke="#999999" stroke-width="1.0" stroke-linejoin="round" stroke-linecap="butt" d="m453.14172 314.47375l0 0c0 -4.879242 3.9342651 -8.834656 8.787415 -8.834656l0 0c2.3305664 0 4.565674 0.93078613 6.213623 2.587616c1.6479492 1.6568298 2.573761 3.9039307 2.573761 6.24704l0 0c0 4.879242 -3.9342346 8.834656 -8.787384 8.834656l0 0c-4.8531494 0 -8.787415 -3.9554138 -8.787415 -8.834656z" fill-rule="evenodd"/><path fill="#cfe2f3" d="m484.62335 314.61548l0 0c0 -4.879242 3.9342651 -8.834625 8.787415 -8.834625l0 0c2.3305664 0 4.565674 0.93078613 6.213623 2.5875854c1.6479492 1.6568298 2.573761 3.9039612 2.573761 6.24704l0 0c0 4.879242 -3.9342346 8.834656 -8.787384 8.834656l0 0c-4.8531494 0 -8.787415 -3.9554138 -8.787415 -8.834656z" fill-rule="evenodd"/><path stroke="#999999" stroke-width="1.0" stroke-linejoin="round" stroke-linecap="butt" d="m484.62335 314.61548l0 0c0 -4.879242 3.9342651 -8.834625 8.787415 -8.834625l0 0c2.3305664 0 4.565674 0.93078613 6.213623 2.5875854c1.6479492 1.6568298 2.573761 3.9039612 2.573761 6.24704l0 0c0 4.879242 -3.9342346 8.834656 -8.787384 8.834656l0 0c-4.8531494 0 -8.787415 -3.9554138 -8.787415 -8.834656z" fill-rule="evenodd"/><path fill="#cfe2f3" d="m514.8412 314.61548l0 0c0 -4.879242 3.9342651 -8.834625 8.787415 -8.834625l0 0c2.3305664 0 4.565674 0.93078613 6.213623 2.5875854c1.6479492 1.6568298 2.5737915 3.9039612 2.5737915 6.24704l0 0c0 4.879242 -3.9342651 8.834656 -8.787415 8.834656l0 0c-4.8531494 0 -8.787415 -3.9554138 -8.787415 -8.834656z" fill-rule="evenodd"/><path stroke="#999999" stroke-width="1.0" stroke-linejoin="round" stroke-linecap="butt" d="m514.8412 314.61548l0 0c0 -4.879242 3.9342651 -8.834625 8.787415 -8.834625l0 0c2.3305664 0 4.565674 0.93078613 6.213623 2.5875854c1.6479492 1.6568298 2.5737915 3.9039612 2.5737915 6.24704l0 0c0 4.879242 -3.9342651 8.834656 -8.787415 8.834656l0 0c-4.8531494 0 -8.787415 -3.9554138 -8.787415 -8.834656z" fill-rule="evenodd"/><path fill="#cfe2f3" d="m548.94354 315.0433l0 0c0 -4.879242 3.9342651 -8.834656 8.787415 -8.834656l0 0c2.3305664 0 4.565674 0.93081665 6.213623 2.587616c1.6480103 1.6568298 2.5737915 3.9039612 2.5737915 6.24704l0 0c0 4.879242 -3.9342651 8.834656 -8.787415 8.834656l0 0c-4.8531494 0 -8.787415 -3.9554138 -8.787415 -8.834656z" fill-rule="evenodd"/><path stroke="#999999" stroke-width="1.0" stroke-linejoin="round" stroke-linecap="butt" d="m548.94354 315.0433l0 0c0 -4.879242 3.9342651 -8.834656 8.787415 -8.834656l0 0c2.3305664 0 4.565674 0.93081665 6.213623 2.587616c1.6480103 1.6568298 2.5737915 3.9039612 2.5737915 6.24704l0 0c0 4.879242 -3.9342651 8.834656 -8.787415 8.834656l0 0c-4.8531494 0 -8.787415 -3.9554138 -8.787415 -8.834656z" fill-rule="evenodd"/></g></svg>